<svg xmlns="http://www.w3.org/2000/svg" width="337.583" height="277.518" viewBox="0 0 337.583 277.518">
  <g id="Group_6846" data-name="Group 6846" transform="translate(6398.219 3973.066)">
    <path id="Path_19478" data-name="Path 19478" d="M99.74,199.453a32.6,32.6,0,0,0,1.422-3.062,38.783,38.783,0,0,0,1.946-6.319c.457-2.759-1.075-4.264-3.886-4.28a10.675,10.675,0,0,0-6.157,1.848,8.822,8.822,0,0,1-2.951,1.22c1.049-.881,2.044-1.838,3.158-2.628a9.263,9.263,0,0,1,8.712-1.272c.2.066.391.145.589.21.029.009.071-.024.211-.075-.114-.284-.214-.575-.343-.852q-4.422-9.5-8.864-19c-.191-.405-.554-.943-.92-1.019-3.1-.648-3.988-3.248-3.812-5.8.054-.79.309-1.568.337-2.357a5.486,5.486,0,0,0-.233-2.429c-.253-.537-1.087-.8-1.755-1.247-.017-.04-.054-.441-.263-.577a7.637,7.637,0,0,1-3.33-4.556c-.09-.326-.76-.609-1.2-.7a30.061,30.061,0,0,1-4.261-.743c-1.771-.639-2.031-1.68-1.235-3.4a30.963,30.963,0,0,0,1.568-3.414,11.09,11.09,0,0,0,.4-3.079,2.642,2.642,0,0,0-1.409-2.464,5.072,5.072,0,0,1-2.7-3.738,1.627,1.627,0,0,0-.5-.827c-4.138-4.156-4.837-9.087-3.251-14.512a1.855,1.855,0,0,0-.372-1.977,4.567,4.567,0,0,1-1-2.982c.307-2.766.9-5.5,1.477-8.233a2.285,2.285,0,0,0-.241-1.971c-1.366-2.076-1.108-4.353-.639-6.667a13.522,13.522,0,0,0,5.826,9.732c4.082-5.609,4.209-11.383.954-17.392a14.07,14.07,0,0,1,3.624,10.554c2.413,0,4.9-2.241,5.613-4.937a6.8,6.8,0,0,0-.741-5.461,61.323,61.323,0,0,0-4.605-6.192c-.4-.484-1.294-.558-1.961-.82l-.2.314q1.3,1.507,2.593,3.015c.9,1.048,1.886,2.034,2.677,3.158,1.782,2.534,1.458,5.23-.965,7.653.127-.351.16-.487.223-.608a5.533,5.533,0,0,0-.744-6.651c-1.338-1.55-2.848-2.952-4.229-4.467a13.14,13.14,0,0,1-2.477-14.812,20.327,20.327,0,0,1,.6,2.919c.224,4.408,3.4,6.6,6.562,8.765.492.336,1.325.174,2.006.15C79.3,74.2,76.975,69.03,78.814,63.61c1.883,4.513,2.9,9.584,7.655,12.28-5.486-5.21-7.168-11.645-5.995-18.945.529-3.293,2.134-5.892,5.519-7.009a4.985,4.985,0,0,1,.677-.071,9.553,9.553,0,0,0-4,5.24,41.855,41.855,0,0,0-1.246,6.321c2.084-6.03,7.035-8.009,12.568-9.146a2.9,2.9,0,0,0,2.25-1.49,9.185,9.185,0,0,1,2.254-2.578l-4.415,2.871a7.07,7.07,0,0,1,8.138-4.638c1.7.407,3.337,1.1,5.013,1.62a5.188,5.188,0,0,0,1.153.1l.1-.516L98.327,44.368c-.027.066.061-.151.149-.369a30.713,30.713,0,0,1,4.333.476c1.943.484,3.813,1.256,5.726,1.869a2.458,2.458,0,0,0,.886-.065c-.115-.271-.153-.654-.358-.792a14.338,14.338,0,0,0-2.58-1.534c-2.65-1.063-5.334-1.345-7.98.076L93.22,47.143l.212.388,2.208-.864a11.916,11.916,0,0,1-10.785,5.682l6.315-3.675-.979-.124a30.764,30.764,0,0,0,2.935-2.7c3.027-3.563,6.778-5.033,11.812-4.075-.813-.547-1.33-.935-.374-1.484-5.016.373-10.21-.046-13.245,5.224l.871-2.932c-.759,1.23-2.2,1.762-2.746,3.3-.956,2.7-3.429,3.44-6.181,3.576a4.563,4.563,0,0,1,1.051-.837c2.117-.829,3.239-2.567,4.2-4.46A8.38,8.38,0,0,1,89.57,42.04C90.6,40.992,90.79,39.6,91.423,38.4a2.807,2.807,0,0,1,.875-1.051c2.762-1.768,5.29-4.047,8.875-4.133.016-.154.06-.266.028-.35a1.117,1.117,0,0,0-.224-.271c3.2-1.447,7.037-1.2,8.67.654h-3.1l-.031.215,2.464.741.007.219h-3.575q-.021.139-.042.279l3.755.99-.058.292-1.418.167-.021.208,3.049.778-2.329,1.046,2.107,1.9h-1.661l1.334,1.251-1.961-.559-.159.179,2.6,2-.411.478-3.117-.986,3.077,2.706c1.229-1.361,2.771-2.333,3.491-4.321,1.2-3.306,4-4.881,7.4-5.458,1.068-.181,2.109-.607,3.178-.683,1.656-.118,3.328-.031,4.964-.15-6.535-1.726-12.084.034-16.786,4.884a10.859,10.859,0,0,1,4.255-5.088A12.576,12.576,0,0,1,132.4,35.666c.121.115.229.245.352.358,4.186,3.836,4.318,8.65.567,13a126.945,126.945,0,0,0-8.012,10.121,17.272,17.272,0,0,0-2.171,5.681,5.493,5.493,0,0,0,1.77,5.486c3.219,3,7.314,3.725,11.42,4.367l.128-.368c-.892-.274-1.77-.613-2.679-.809a10.4,10.4,0,0,1-7.238-4.943,6.5,6.5,0,0,1-.257-6.283,8.492,8.492,0,0,0,3.5,7.516l-2.3-5.967.319-.16.6.744.285-1.736c1.336,3.441,2.1,6.892,5.653,8.411-2.526-3.031-2.87-6.593-2.652-10.309.843,3.652,1.913,7.174,4.916,9.767a16.585,16.585,0,0,1-2.447-9.618c1.363,4.775,3.3,9.166,7.81,11.848a19.335,19.335,0,0,1-4.868-7.325,18.058,18.058,0,0,1-.927-8.707c.27,1.509.464,3.036.823,4.524,1.319,5.468,4.338,9.652,9.487,12.113a7,7,0,0,0,2.157.274l.089-.39c-.927-1-1.9-1.967-2.774-3.019-3.737-4.524-4.333-9.762-3.29-15.3.635-3.371,1.436-6.711,2.164-10.065,1.316-6.064,1.594-12.1-.234-18.164.468,1.289,1,2.559,1.393,3.87,1.642,5.462,1.154,10.916-.027,16.392A99.727,99.727,0,0,0,143.8,58.684c-.519,5.6,2.189,9.947,6.344,13.509-5.721-6.091-5.42-13.267-3.805-20.687q.381,5.446.763,10.892l.331-.014c.094-1.913.111-3.834.3-5.737.2-1.955.522-3.9.872-5.835a36.339,36.339,0,0,1,1.455-5.674v3.844l.321.036q1.016-6.6,2.032-13.2l.316.021c-.191,3.154-.26,6.322-.6,9.46-.6,5.553-1.05,11.083-.041,16.64a12.753,12.753,0,0,0,8.646,10.358,25.5,25.5,0,0,1-6.019-14.5c.457,1.354.862,2.728,1.378,4.059,3.958,10.215,11.852,15.573,23.266,15.6a86.788,86.788,0,0,0,8.869-.771,6.989,6.989,0,0,0,1.435-.446c-.606-2-1.149-3.881-1.764-5.737a1.242,1.242,0,0,0-.8-.584,10.25,10.25,0,0,0-1.373-.1c-6.636-.8-10.3-3.824-11.753-10.366-.975-4.4-1.326-8.934-2.038-13.4s-1.389-8.936-2.326-13.353c-1.672-7.889-6.391-13.3-13.871-16.295a34.83,34.83,0,0,0-4.759-1.629l7.09,5.755-.178.293c-2.319-1.3-4.663-2.566-6.95-3.923a21.613,21.613,0,0,0-7.777-2.718c-2.688-.422-5.377-.92-8.085-1.111s-5.415-.042-8.124-.042q-.011.182-.022.365l1.624.158c1.041.1,2.09.155,3.122.315,3.591.557,7.218.965,10.754,1.769A19.247,19.247,0,0,1,157.03,31.879a41.311,41.311,0,0,1,.117,7.645c-.186-1.558-.3-3.13-.571-4.672-1.2-6.725-4.217-12.357-10.24-15.945a29.1,29.1,0,0,0-6.281-2.487c4.389,2.546,6.482,6.643,8.139,11.436-8.689-14.954-25.04-15.894-37.688-8.4l2.792-2.33-.114-.218-9.018,4.34.119.374,6.831-.938.077.191a5.49,5.49,0,0,1-.862.392c-2.141.567-4.28,1.148-6.435,1.657-1.689.4-3.315.87-4.461,2.382,2.871-1.476,5.9-1.457,8.993-1.053-3.574.941-7.345,1.389-10.091,4.271a19.615,19.615,0,0,1,9.866-2.693l-.883.745,2.834.171.09.231-2.177.848.04.171h2.428l.043.157-1.585.429,1.464,1.078-2.035.693.918,1.059H101.3l-.115-.453,5.009-1.621-.228-.536c-2.178.89-4.448,1.606-6.518,2.7-7.586,4.012-12.9,10.276-16.985,17.671a44.334,44.334,0,0,0-5.2,15.474,34.02,34.02,0,0,1,3.076-14.365,42.393,42.393,0,0,1,8.568-12.9,18.029,18.029,0,0,0,1.487-2,2.792,2.792,0,0,0,.864-.246c1.042-.754,2.062-1.541,3.065-2.347a4.4,4.4,0,0,0,.623-.787l-.3-.283-4.268,3.7c.506-1.509,1.038-2.874,2.67-3.714,1.07-.551,1.787-1.789,2.569-2.809-2.573.463-3.288,2.971-5.229,4.657,2.543-4.861,5.4-8.975,9.817-11.858a60.67,60.67,0,0,1,20.822-8.47,32.286,32.286,0,0,0,12.559-5.748c2.395-1.759,4.7-3.646,7.111-5.378A10.171,10.171,0,0,1,148.407.13c1.471.231,1.894,1.084,1.3,2.5-.3-1.642-.424-1.727-2.1-1.62a12.048,12.048,0,0,0-7.237,3.14c-2.148,1.854-4.322,3.677-6.465,5.5.188-.046.508-.107.817-.2,7.068-2.235,14.147-4.416,21.511-5.507A54.077,54.077,0,0,1,186,7.7c3.73,1.593,7.673,2.686,11.393,4.3a43.862,43.862,0,0,1,16.324,12.038.668.668,0,0,1,.138.631c-3.747-2.713-7.364-5.633-11.277-8.079a105.7,105.7,0,0,0-12.308-6.324l5.408,5.921-.328.3c-.528-.594-1.039-1.2-1.586-1.779C190.314,11.08,186,9.01,181.289,7.518c-10.635-3.365-21.337-3.384-32.133-1.012l-3,.656.029.344h7.94L154.1,7.6l-14.6,2.935q.017.251.033.5a20.7,20.7,0,0,0,2.425-.013c7.188-.853,14.354-1.978,21.564-2.539,6.009-.468,12.068-.281,17.859,1.867.421.156.821.367,1.134.508L171.519,9.833l-.215.588c8.489,1.442,15.095,6.009,20.672,12.281l.24-.276-6.884-9.256c6.928,5.784,12.087,13.1,17.607,20.162l-1.2-.822-.27.3c.7.633,1.38,1.278,2.087,1.9,2.866,2.5,5.43,5.551,8.68,7.374,5.618,3.152,10.185,7.515,14.954,11.635a32.915,32.915,0,0,1,8.663,12.042,14.88,14.88,0,0,0,1.085,2.118c2.888,4.54,4.158,9.66,5.336,14.811a73.469,73.469,0,0,1,1.453,7.918l-4.017-12.454c-.392,6.369-.763,12.393-1.119,18.171-.674-4.776-1.368-9.74-2.077-14.7-.935-6.542-3.925-12.143-8.015-17.206-1.812-2.243-3.773-4.365-5.524-6.713l7.571,6.921.2-.12c-1.325-1.891-2.579-3.837-3.995-5.658-1.334-1.716-2.823-3.314-4.279-4.933a2.566,2.566,0,0,0-1.19-.848,58.75,58.75,0,0,1-16.862-6.431c.721,1.937,11.515,13.382,15.418,16.64a14.662,14.662,0,0,1-1.737-.557,19.3,19.3,0,0,1-6.923-5.515c-2.812-3.474-5.375-7.148-8.069-10.718a7.484,7.484,0,0,0-1.608-1.691,47.594,47.594,0,0,1-14.37-15.555,2.148,2.148,0,0,1-.294-.837C195.637,40.2,207.364,47.814,221,52.727l.261-.3c-.618-.519-1.162-1.332-1.867-1.511-6.879-1.748-12.51-5.59-17.48-10.452-4.637-4.536-9.062-9.289-13.647-13.88a78.419,78.419,0,0,0-12.839-10.247c-5.251-3.415-11.181-4.57-17.269-5.2q-.375-.039-.747-.095c-.031,0-.054-.061-.124-.145,7.658-.236,14.813,1.071,21.2,5.613a110.417,110.417,0,0,1,16.622,14.889c4.856,5.2,9.634,10.519,15.594,14.518,2.246,1.507,4.738,2.649,7.129,3.937a10.054,10.054,0,0,0,1.4.471c-1.637-2.2-3.095-4.175-4.571-6.134a1.582,1.582,0,0,0-.6-.434c-5.52-2.508-9.9-6.528-14.133-10.722-4.132-4.1-8.134-8.324-12.274-12.411a41.488,41.488,0,0,0-13.636-8.54,26.2,26.2,0,0,0-12.592-1.955c-5.337.46-10.693.7-16.04,1.05a4.024,4.024,0,0,0-1.866.6c2.82.725,5.656,1.39,8.455,2.188,4.081,1.163,8.081,2.569,11.471,5.228a25.129,25.129,0,0,1,3.309,3.238c2.5,2.857,4.862,5.844,7.414,8.656,4.134,4.556,8.308,9.069,11.722,14.223-4.068-7.691-10.254-13.941-14.5-21.543.7.732,1.405,1.455,2.094,2.2a88.709,88.709,0,0,1,11.953,15.319,41.946,41.946,0,0,1,4.418,12.19,102.471,102.471,0,0,1,1.857,14.912,29.276,29.276,0,0,0,.905,5.312,32.2,32.2,0,0,0,1.819,4.661,4.556,4.556,0,0,0,1.288,1.458c-2.568-5.587-3.044-11.519-3.224-17.512,1.756,6.446,1.7,13.529,6.677,18.854-.9-4.892-.376-9.694.447-14.485.151,3.166.226,6.337.472,9.5a14.9,14.9,0,0,0,5.472,10.913c-2.875-4.272-3.071-9.075-2.724-14l.581,2.363.074-.009a47.955,47.955,0,0,1-.42-6.7c.294-4.152-1.53-7.63-3-11.261a26.025,26.025,0,0,1-1.171-4.31c3.843,5.822,8.784,10.946,11.086,17.7a24.03,24.03,0,0,1,1.189,5.373,62.123,62.123,0,0,1,.165,8.814c-.336-1.677-.766-3.341-.991-5.033A37.368,37.368,0,0,0,204.7,63.923a1.121,1.121,0,0,0-.628-.521,14.229,14.229,0,0,0,1.084,3.056c1.895,2.986,2.094,6.391,2.73,9.713a88.985,88.985,0,0,0,2.148,8.757,9.041,9.041,0,0,0,3.921,5.337l-.138.372-4.863-.769,4.818,2.975c2.429-4.771,4.186-9.578,3.823-15.138a13.615,13.615,0,0,1,.2,7.384c-.618,2.51-1.536,4.946-2.275,7.428a5.063,5.063,0,0,0-.018,1.388c-.213.166-.752.379-.93.761-1.432,3.072-2.918,6.127-4.152,9.28a14.3,14.3,0,0,0,.711,12.946c.083.144.188.275.417.608a4.539,4.539,0,0,0-.069-.673,1.2,1.2,0,0,1-.113-.6l1.721,2.083a17.569,17.569,0,0,1-1.692-13.592,18.507,18.507,0,0,0,6.841,16.019,9.35,9.35,0,0,1-.884-1.467c-1.451-3.811-3.045-7.581-4.224-11.476-.767-2.534-.116-5.2.878-7.622,1.437-3.5,3.091-6.915,4.653-10.365l.31.1a22.613,22.613,0,0,1-.532,2.229c-.939,2.731-1.961,5.434-2.878,8.172a17.558,17.558,0,0,0-.913,7.394c.6-1.867,1.071-3.8,1.856-5.6a7.377,7.377,0,0,1,4.219-4.14c-2.823,6.634-2.1,13.128.046,19.657.3-4.032.589-7.986.88-11.94l.473,0,.237,1.045c.182-.272.32-.39.346-.528.759-4.068,1.6-8.125,2.22-12.214a10.592,10.592,0,0,0-1.661-7.2,20.4,20.4,0,0,1-2.94-8.881c.156.327.32.652.465.984.168.383.289.79.483,1.159,1.247,2.368,2.466,4.752,3.774,7.086a13.516,13.516,0,0,1,1.217,10.577c-.819,2.933-1.983,5.77-3.031,8.636a1.621,1.621,0,0,0,.426,2.128c.585-1.628,1.113-3.223,1.729-4.783.825-2.093,1.745-4.148,2.574-6.239a9.5,9.5,0,0,0,.323-6.87,5.068,5.068,0,0,1,.314-4.03,10.383,10.383,0,0,0,.545-7.7,18.569,18.569,0,0,1-.753-3.934l1.633,3.327c-.023-2.352-2.078-6.637-6.5-14.049.523.522,1.059,1.033,1.568,1.568,2.874,3.023,5.716,6.129,6.558,10.365a79.783,79.783,0,0,1,.814,8.109c.132,1.408.263,2.816.407,4.362,1-1.378,1.392-3.576,1.5-8.226a14.463,14.463,0,0,1,2.1,6.292,16.109,16.109,0,0,1-.938,7.038,42.756,42.756,0,0,1-4.64,8.391,39.734,39.734,0,0,0-2.467,4.079c-2.078,4.331-.975,5.945,2.351,8.156l-1.039.294c.757,6.412,3.128,9.812,9.144,10.5-1.02-.741-2.153-1.443-3.146-2.306a10.192,10.192,0,0,1-3.268-11.343c1.219-4.18,3.751-7.609,6.528-10.9-.678,1.268-1.377,2.526-2.029,3.808a27.7,27.7,0,0,0-3.32,9.682c-.423,4.113,1.167,7.117,4.9,8.877a18.744,18.744,0,0,0,4.408,1.357,2.688,2.688,0,0,0,3.065-1.583,41.794,41.794,0,0,0,4.434-11.049,22.738,22.738,0,0,1,.608,7.406,7.554,7.554,0,0,0,.255,2.429c.406,1.866.884,3.717,1.34,5.6a21.908,21.908,0,0,0,.414-9.128c-.354-3.067-.857-6.116-1.215-9.191,1.6,4.255,3.289,8.494,3.434,13.119a12.248,12.248,0,0,1-3.225,8.852,19.386,19.386,0,0,0-2.679,4.513,33.26,33.26,0,0,0,3.675-1.943c3.513-2.433,5.382-6.015,6.538-9.995a29.5,29.5,0,0,0,.575-14.78,3.813,3.813,0,0,1-.046-.487l.335-.078c.42,1.683.964,3.346,1.235,5.053a24.191,24.191,0,0,1-1.61,13.783c-2.127,4.832-5.522,8.107-11.038,8.756a4.622,4.622,0,0,0-2.112,1.359,11.534,11.534,0,0,0,9.452-2.273,16.938,16.938,0,0,0,5.471-8.266c.867-2.607,1.482-5.3,2.323-7.966q-.188,3-.375,5.991c1.121-2.244,2.675-4.311,2.831-6.946.516-8.759-2.591-16.266-8.085-22.872-3.05-3.667-6.308-7.162-9.478-10.73a2.7,2.7,0,0,0-.657-.574,12.848,12.848,0,0,1-4.715-4.936c-.951-1.624-1.9-3.247-2.781-4.936,4.327,2.908,6.105,8.32,10.7,11.041l-1.912-.425c.589.54.924.858,1.27,1.163,5,4.421,9.91,8.963,13.169,14.883,1.556,2.827,2.613,5.93,3.718,8.493.268-1.072-.26-4.549-1.462-6.73-.925-1.678-2.095-3.221-3.146-4.83a54.045,54.045,0,0,1-2.983-4.967c2.7,2.289,5.46,4.507,8.074,6.887,2.5,2.279,3.254,5.358,3.556,8.615a5.477,5.477,0,0,0,.891,2.64c2.577,3.507,5.253,6.942,7.922,10.382,2.96,3.815,5.864,7.667,7.238,12.4a14.39,14.39,0,0,1-2.166,12.623c.213-.563.435-1.124.638-1.691a16.4,16.4,0,0,0-1.839-14.8c-2.413-3.858-5.244-7.455-7.895-11.164-1.523-2.132-3.056-4.257-4.742-6.605-.137,1.521-.322,2.825-.332,4.13a2.349,2.349,0,0,0,.715,1.249c3.351,3.907,6.81,7.726,10.041,11.73a21.439,21.439,0,0,1,2.792,5.159,5.057,5.057,0,0,1-.093,4.491c-.405-.367-.739-.863-1.2-1.056a25.08,25.08,0,0,1-12.317-10.829,16.116,16.116,0,0,1-1.41-3.961,65.175,65.175,0,0,0,14.473,14.74l.467-.263a21.333,21.333,0,0,0-1.68-4.208c-1.474-2.221-3.23-4.258-4.9-6.348-2.242-2.812-4.511-5.6-6.771-8.4a4.846,4.846,0,0,0-.392-.379c-.586,1.645-1.156,3.2-1.682,4.765a1.473,1.473,0,0,0,.048.856c1.925,5.962,4.778,11.335,9.811,15.3a9.235,9.235,0,0,0,1.589,1,4.431,4.431,0,0,0,1.279.1c1.261,3.057,2.837,6.34,2.371,10.148a3.825,3.825,0,0,1-1.851,2.957c.892-3.96-.095-7.691-.721-11.44a1.246,1.246,0,0,0-.722-.844,13.761,13.761,0,0,1-6.745-4.157l-.278.217,5.447,7.476a21.716,21.716,0,0,1-3.166-1.963c-2.713-2.446-4.235-5.683-5.57-9-.686-1.7-1.214-3.466-1.934-5.551l.955.7-.988-4.612c-.557,1.095-.971,1.937-1.41,2.767a35.632,35.632,0,0,1-6.94,9.638c-1.867,1.747-3.917,3.142-6.638,3.163a2.4,2.4,0,0,0-1.184.6,9.077,9.077,0,0,1-7.86,1.534,15.519,15.519,0,0,1-2.388-1.044l9.641-.868q0-.257.009-.513a5.344,5.344,0,0,0-1.266-.251,6.881,6.881,0,0,1-4.459-.946.631.631,0,0,0-.568-.02c-1.694,1.108-3.735,1.756-4.8,3.7-.615,1.126-1.329,2.2-2.105,3.472a21.679,21.679,0,0,0,15.935-.022,16.991,16.991,0,0,0,10.64-11.476c.223,1.44-.551,4.21-1.695,6.147-2.767,4.687-7.126,6.88-12.269,7.892a7.237,7.237,0,0,0-2.367.92c-3.347,2.074-9.463,1.885-12.7-.441a8.267,8.267,0,0,0-1.142-.584l-.355.445a12.294,12.294,0,0,0,1.488,1.663A17.886,17.886,0,0,0,249.84,152.8a1.71,1.71,0,0,1,.969.171c-.172.065-.345.128-.516.2-.193.076-.384.156-.6.243,2.029.354,4.68-.541,9.161-3.511,2.886-1.914,4.459-5,6.112-8.012.081.141.128.185.119.212-1.283,3.941-2.027,8.081-4.355,11.635-1.068,1.63-1.486,2.038-4.987,4.246a8.268,8.268,0,0,0,2.042-.023c3.026-.894,5.9-2.166,7.263-5.239,1.21-2.738,2.077-5.628,3.084-8.455.123-.344.177-.713.3-1.22.625,3.094-.84,8.3-3.661,13.116a5.043,5.043,0,0,0,1.249-.46c2.07-1.574,4.123-3.182,5.163-5.687a7.7,7.7,0,0,0-.135-5.529c-.72-2.186-1.552-4.336-2.26-6.526-1.148-3.556-1.6-7.917-1.13-10.262.067.012.179,0,.195.039,1.888,4.152,3.921,8.247,5.593,12.485a32.169,32.169,0,0,1,2,7.852,8.863,8.863,0,0,1-4.217,8.7,16.413,16.413,0,0,1-9.825,3.29c-1.4-.035-2.824.763-4.189,1.388,5.373.95,10.557.593,15.267-2.4,4.874-3.1,6.7-7.986,7.408-13.767,1.294,5.268.03,10.412-8,16.218,1.969-.136,4.057.508,5.756-1.234,1.6-1.642,3.312-3.18,4.975-4.764l.263.181-3.862,5.144a6.1,6.1,0,0,0,3.946-2.071,24.391,24.391,0,0,0,5.5-12.212,52.329,52.329,0,0,0,.864-6.462c.1-1.77-.182-3.56-.194-5.441a17.439,17.439,0,0,1,1.122,3.732c.491,6.848-.676,13.337-4.53,19.185-.312.474-.285,1.16-.551,1.678a8.027,8.027,0,0,1-1.532,2.452c-1.014.887-2.277,1.49-3.441,2.453.638,0,1.276.012,1.914,0,6.931-.146,13.751.543,20.179,3.3,3.918,1.68,7.684,3.714,11.532,5.559,2.715,1.3,5.422,2.632,8.193,3.8a18.193,18.193,0,0,0,7.493,1.209,39.775,39.775,0,0,1,25.863,8.421c1.8,1.406,3.662,2.724,5.525,4.1a11.985,11.985,0,0,1-2.386-.364c-3.347-1.194-6.765-2.258-9.971-3.766a47.478,47.478,0,0,0-18.8-4.45c-4.137-.147-8.3-.284-12.272-1.691a14.5,14.5,0,0,1-2.838-1.372,23.819,23.819,0,0,0,8.679-.492c-7.688-.979-14.587-4.314-21.683-7.03a48.128,48.128,0,0,0-17.928-3.266c-3.139.036-6.28-.089-9.42-.078a7.883,7.883,0,0,0-1.73.479,14.111,14.111,0,0,1-3.453.761,11.689,11.689,0,0,1-3.781-.828,64.207,64.207,0,0,0-8.954-2.378,47.084,47.084,0,0,1-13.828-5.84c-.356-.209-.721-.4-1.157-.647a6.859,6.859,0,0,0-.353.833c-3.318,12.353-9.308,23.362-16.91,33.554-1.477,1.98-2.985,3.941-4.582,5.823a4.129,4.129,0,0,0-1.1,3.086c.188,2.713.361,5.428.632,8.133.566,5.646.644,11.257-1.908,16.5-1.2,2.454-2.794,4.712-4.2,7.044.992-.782,2.064-1.608,3.116-2.458,7.948-6.419,15.973-12.745,23.814-19.292,7.355-6.142,14.744-12.279,20.507-20.068a113.683,113.683,0,0,0,10.244-16.967,2.619,2.619,0,0,1,.763-1.027c-.183.695-.346,1.4-.553,2.083-1.869,6.222-3.561,12.607-7.251,17.99-4.39,6.4-7.032,13.57-10.11,20.557-4.49,10.19-8.848,20.439-13.261,30.664a2.121,2.121,0,0,0-.226,1.133c.425-.48.868-.946,1.272-1.442C250.819,234,259.673,221.8,266.859,208.5c4.355-8.059,8.1-16.445,12.137-24.677,1.3-2.662,2.651-5.3,4.187-7.886-.144.527-.273,1.058-.435,1.58-3.5,11.281-7.24,22.469-12.392,33.14a104.986,104.986,0,0,1-30.373,37.555,6.811,6.811,0,0,0-1.46,1.523,3.609,3.609,0,0,1-3.407,1.725c-2-.116-3.925-.041-5.639,1.217-.66.484-1.182.126-1.184-.633a13.289,13.289,0,0,1,.282-2.863c.487-2.207,1.069-4.392,1.612-6.586.1-.394.187-.789.33-1.391l-1.435.891a16.4,16.4,0,0,1,1.06-8.929,19.381,19.381,0,0,0-2.464,1.3c-3.4,2.441-6.78,4.906-10.106,7.443a1.732,1.732,0,0,1-2.23.268c-1.69-1-3.5-1.816-5.11-2.921-1.588-1.09-1.321-1.5-.082-2.924a20.516,20.516,0,0,0,2.84-4.7c2.865-6.006,3.339-12.358,2.588-18.964-1.489,0-2.9.021-4.3-.011a3.94,3.94,0,0,1-1.481-.247c-4.389-1.953-8.649-4.266-13.17-5.831a24.313,24.313,0,0,0-14.371-.176c-1.628.436-1.97,1.014-1.353,2.568a20.707,20.707,0,0,0,2.314,4.278c1.156,1.635,2.549,3.1,3.837,4.645.4.474.779.957,1.43,1.757l-2.8-.145,4.136,5.046-.135.188-7.847-5.812-.262.218,1.386,2.741c-5.782-1.874-11.174-4.462-17.576-3.855a19.962,19.962,0,0,1,1.95.669c2.565,1.214,5.208,2.3,7.641,3.742a9.4,9.4,0,0,1,4.078,5.69,12.128,12.128,0,0,0,1.38,2.534c12.3-3.067,23.154-9.1,34.349-14.317l.177.329c-1.2.955-2.4,1.9-3.586,2.866-4.072,3.289-8.03,6.8-12.877,8.9-3.593,1.56-7.37,2.7-11.073,4-1.142.4-2.345.65-3.457,1.119-1.448.612-2.142,1.617-1.74,3.089a42.415,42.415,0,0,0,2.255,5.812c.29.658,2.151.841,2.848.4.623-.395,1.225-.821,1.742-1.169a17.5,17.5,0,0,1-.01,2c-1.016,8.685-1.63,17.444-4.492,25.8a33.57,33.57,0,0,1-2.165,4.758,1.655,1.655,0,0,1-1.378.577c-.292-.03-.731-.7-.734-1.09-.018-1.839.2-3.683.135-5.519-.2-5.9-.472-11.788-.729-17.681a11.716,11.716,0,0,0-.2-1.326c-.162-.02-.273-.068-.312-.034-5.005,4.408-9.882,8.937-13.406,14.694a16.053,16.053,0,0,0-1.347,2.551c-1.441,3.74-4.258,5.9-7.95,7.1a38.6,38.6,0,0,1-13.274,1.7c-11.506-.381-23-1-34.508-1.428-7.4-.278-14.813-.414-22.221-.567a10.236,10.236,0,0,0-2.835.391q-5.686,1.535-11.341,3.184a16.167,16.167,0,0,1-7.821.412,3.836,3.836,0,0,1-.579-.181,52.849,52.849,0,0,0,6.808-2.414c6.5-3.3,11.268-8.529,15.025-14.626,1.986-3.223,3.4-6.8,5.062-10.22.988-2.033,1.912-4.1,2.941-6.11A37.157,37.157,0,0,0,97.2,231.661a1.193,1.193,0,0,0-.407-.991c-2.837-1.587-5.706-3.117-8.556-4.657a25.836,25.836,0,0,0,.756,2.6,5.164,5.164,0,0,1-1.8,5.761,7.264,7.264,0,0,1-7.418.395,1.531,1.531,0,0,0-1.3-.026,9.222,9.222,0,0,1-5.916,1.744c-2.047-.015-4.092-.281-6.14-.317a17.917,17.917,0,0,0-3.574.353,1.244,1.244,0,0,0-.546,1.07,9.4,9.4,0,0,1,.578,5.3c-.4,3.025-.848,6.043-1.291,9.062-.064.439-.209.867-.326,1.338-3.5-3.272-3.5-3.272-3.033-10.187-.681.5-1.388.75-1.609,1.226-1.225,2.629-3.4,3.811-6.1,4.291a10.067,10.067,0,0,1-2.85.2,29.029,29.029,0,0,1,4.181-2.2,5.334,5.334,0,0,0,3.731-4.3c.26-1.206.569-2.4.9-3.8-3.244,2.5-6.359,3.557-9.652,3.273,1.956-.874,3.744-1.6,5.467-2.461a8.97,8.97,0,0,0,4.27-3.831l-9.9-.759q.007-.175.015-.349c2.352-.6,4.724-1.121,7.05-1.8,5.5-1.613,10.98-3.307,16.472-4.95a13.635,13.635,0,0,1,1.849-.356c2.46-.376,4.734-.182,6.6,1.787a16.167,16.167,0,0,0,2.942,2.2c-.654-1.833-.591-3.489.81-4.907a3.026,3.026,0,0,1,3.176-.807c-.641.433-1.193.749-1.68,1.145-1.551,1.263-1.591,2.727-.068,4.01a9.934,9.934,0,0,0,1.915,1.184c1.657.844,2.282.462,2.244-1.424a6.875,6.875,0,0,0-.439-1.945,13.075,13.075,0,0,0-8.229-8.677c-2.473-.91-4.906-1.938-7.4-2.768A23.793,23.793,0,0,0,53.5,218.463a42.813,42.813,0,0,1-12.737,4.121c-.45.061-.9.1-1.687.184a3.779,3.779,0,0,1,.6-.4c4.305-1.275,8.081-3.587,11.9-5.874a44.248,44.248,0,0,1,8.168-4.055c4.588-1.581,9.177-.477,13.691.832a51.086,51.086,0,0,1,17.552,9.51c1.267,1.007,2.682,1.828,4.323,2.933-.933-2.812-.18-4.779,1.964-6.162a4.386,4.386,0,0,1,5.583.354l.262-.294c-1.2-1.392-2.371-2.814-3.633-4.149-.238-.252-.846-.18-1.287-.211-1.561-.108-3.124-.2-4.687-.292q0-.216,0-.433l.919-.106c-7.862-3.042-14.785-7.535-21.411-12.539-.734-.554-1.508-1.057-2.285-1.55-3.5-2.221-6.921-2.064-10.336.258-2.561,1.741-5.138,3.47-7.808,5.033a30.963,30.963,0,0,1-12.595,4.388c-.2.02-.408.023-.62.034.011-.12,0-.24.027-.249,5.078-1.71,9.044-5.159,13.192-8.348a63.443,63.443,0,0,1,6.909-4.777c5.116-2.946,10.224-2.539,14.781,1.108A130.525,130.525,0,0,0,85.4,205.492c2.77,1.783,5.237,4.032,7.922,5.957a21.156,21.156,0,0,0,4.12,2.108,7.059,7.059,0,0,1-.9-6.6c.993-2.553,3.2-3.068,5.676-2.859-.014-.138.009-.257-.033-.287-5.41-3.828-9.658-8.89-14.341-13.49-2.752-2.7-5.479-5.423-9.193-6.852a26.874,26.874,0,0,0-13.416-1.808c-2.5.335-4.429,1.77-6.3,3.222-4.263,3.31-8.393,6.791-12.644,10.118-1.229.962-2.7,1.6-4.028,2.449-2.879,1.843-5.808,3.623-8.57,5.63-1.7,1.234-2.036,3.294-2.226,5.289-.083.874-.1,1.754-.153,2.777-.055-.77-.108-1.4-.141-2.022a8.688,8.688,0,0,1,3.916-8.208c2.527-1.692,5.172-3.206,7.723-4.863a18.1,18.1,0,0,0,2.836-2.252,90.188,90.188,0,0,1,14.605-11.65,20.089,20.089,0,0,1,5.08-1.993c.765-.231,1.15-.483,1.225-1.267.168-1.747.446-3.487.534-5.237a12.672,12.672,0,0,0-.379-2.553l-.359-.135c-.719.777-1.43,1.563-2.162,2.328-.535.559-.963,1.3-1.945.432-.317-.28-1.159.033-1.611.065,2.43-2.628,3.71-6.021,5.325-9.21a1.68,1.68,0,0,0,.109-.974,15.263,15.263,0,0,1,1.664-9.823c.924-1.78,1.653-3.662,2.553-5.456a7.666,7.666,0,0,0,.144-6.088c-.695-2.14-2.092-2.893-4.279-2.284a9.64,9.64,0,0,0-4.507,3.071,34.378,34.378,0,0,0-6.47,10.7c-2.281,5.841-4.529,11.726-6.219,17.753-1.084,3.866-1.085,8.029-1.679,12.043-.392,2.645-.971,5.262-1.482,7.889a8.09,8.09,0,0,1-.4,1.089c.327-2.589.715-4.967.908-7.36.269-3.338.414-6.686.572-10.033.213-4.5,1.736-8.688,3.177-12.879,2.252-6.55,4.828-12.974,9.114-18.508a28.324,28.324,0,0,1,4.42-4.221,6.26,6.26,0,0,1,2.512-1.077c2.826-.676,5,.534,5.609,3.374.83,3.864.953,7.8-.973,11.4a15.634,15.634,0,0,0-1.46,7.415,18.029,18.029,0,0,1-1.3,7.1,1.99,1.99,0,0,0,.147,1.182,7.01,7.01,0,0,1,.568,1.5c.09,2.25.182,4.509.06,6.753-.043.789.027,2.055-1.421,2.082-.059,0-.114.281-.2.517a3.319,3.319,0,0,0,.626.128,27.3,27.3,0,0,1,21.342,9.466c3,3.315,6.315,6.354,9.508,9.5a4.883,4.883,0,0,0,1.131.632c.459.544.879,1.127,1.385,1.623a59.464,59.464,0,0,1,5.173,5.068c1.773,2.229,1.31,4.732-.9,6.557a11.738,11.738,0,0,1-2.612,1.455c-.738.339-1.54.537-2.542.874a17.151,17.151,0,0,1,6.048,6.875c5-5.5,12.091-6.811,18.469-9.924-9.414-5.27-14.263-14.209-19.756-22.962-.129,4.536-2.6,7.527-5.259,10.414m101.626-62.125-.42.105a9.445,9.445,0,0,1-.859-2.609,28.009,28.009,0,0,1,.31-5.712,66.094,66.094,0,0,1,1.953-7.788,20.513,20.513,0,0,0,.639-9.184,15.988,15.988,0,0,0-1.852-6.155c-1.7-2.877-1.739-6.238-1.825-9.519a2.407,2.407,0,0,0-.383-1.5,24.13,24.13,0,0,0-4.5-4.147c-3.992-2.359-8.176-4.393-12.3-6.527a3.32,3.32,0,0,0-1.446-.311A49.256,49.256,0,0,1,155.516,76.8a4.756,4.756,0,0,0-2.929-.7,24.315,24.315,0,0,1-9.464-.387,12.978,12.978,0,0,0-5.067-.394,23.836,23.836,0,0,1-10.569-.267,3.4,3.4,0,0,0-1.583.008c-5.617,1.339-11.226,2.712-16.838,4.07a4.776,4.776,0,0,1-.718,0c5.4-3.115,11.048-4.117,17.163-4.691-.784-.468-1.242-.734-1.691-1.013-2.515-1.56-4.366-3.768-4.584-6.7-.176-2.365.418-4.8.75-7.187.235-1.693.734-3.357.872-5.055a3.338,3.338,0,0,0-2.241-3.695c-1.751-.593-3.588-1.267-5.3.274-1.6,1.435-3.464,2.694-5.628,2.331a8.255,8.255,0,0,0-4.986.928,13.736,13.736,0,0,1-1.9.655c-2.621.73-5.3,1.287-7.854,2.208a15.85,15.85,0,0,0-5.122,2.769C84.5,62.916,85.753,68.793,89.861,70.4c.311.122.609.274.913.411l-.068.156H87.665c.588.5.946.866,1.36,1.147,3.012,2.04,6.081,4,9.027,6.131a7.646,7.646,0,0,1,2.063,2.627,3.258,3.258,0,0,1-4.209,4.185C97.529,85,98.185,84.1,98.434,82.6a39.582,39.582,0,0,0-8.767-2.444c-.885-.105-1.168.409-.9,1.161a17.478,17.478,0,0,0,1.2,2.754,7.653,7.653,0,0,1,.595,6.65c-1.588,4.428-4.982,6.541-9.423,7.266-1.3.213-1.312.178-1.47,1.7,3.433-1.879,7.646-2.075,10.389-5.336l-.6,2.1c5.846-1.729,13.81,2.548,16.563,8.066l-.5-1.819a4.272,4.272,0,0,1,1.131,1.216c1.737,2.647,3.444,5.314,5.2,7.949a17.338,17.338,0,0,1,2.059,16.166c-1.386,3.9-3.014,7.718-4.539,11.571-.107.269-.25.524-.377.785l-.318-.112c.7-2.617,1.412-5.233,2.1-7.853a6.253,6.253,0,0,0,.29-1.583,42.23,42.23,0,0,0-.176-5.517,40.16,40.16,0,0,0-1.348-5.561c-.1-.334-.619-.642-1.009-.777-1.738-.606-3.479-1.223-5.258-1.687a29.869,29.869,0,0,0-5.872-1.2,6.977,6.977,0,0,0-7.4,5.847,3.333,3.333,0,0,1-1.123-3.347,7.426,7.426,0,0,1,4.317-5.659c4.049-1.974,7.867-1.662,11.332,1.339,1.317,1.141,2.576,2.349,3.861,3.526-.418-1.237-.844-2.635-1.788-3.336a26.924,26.924,0,0,0-9.006-4.609c-3.085-.828-4.386-.346-6.25,2.144a2.618,2.618,0,0,1,1.554-3.145,8.039,8.039,0,0,1,7.386.325c2.631,1.281,5.142,2.81,7.707,4.227a2.277,2.277,0,0,0,.433.1c-1.28-1.956-2.461-3.778-3.668-5.582a1.373,1.373,0,0,0-.672-.522c-4.908-1.515-9.75-3.424-15.073-2.3a4.008,4.008,0,0,0-3.048,2.429l1.372-.7c-2.62,4.229-2.9,8.362-.866,12.634.666,1.4,1.333,2.8,2.043,4.172a13.965,13.965,0,0,0,1.045,1.489c.25-.661.405-1.092.576-1.518a7.465,7.465,0,0,1,5.922-4.883,17.574,17.574,0,0,1,12.984,3.088,7.622,7.622,0,0,1,1.186,1.236,2.964,2.964,0,0,0-2.765,1.237,15.877,15.877,0,0,1-2.277,1.965,14.135,14.135,0,0,1-10.132,2.922,20.179,20.179,0,0,1-3.243-.92l.107-.356h5.056l-2.491-3.821c-.874.836-1.834,1.824-2.874,2.721a2.133,2.133,0,0,0-.751,1.826,8.141,8.141,0,0,1-.788,2.432c-.108.3-.435.783-.376.831,1.111.906,1.184,2.429,1.925,3.406a5.564,5.564,0,0,1,1.192,5.115c-.3,1.17-.491,2.369-.7,3.56-.178,1.019-.225,2.069-.482,3.066a8.2,8.2,0,0,0-.14,4.681A10.4,10.4,0,0,1,92,154.8a14.791,14.791,0,0,0,1.476,6.169c.506,1.12.951,2.267,1.448,3.391A233.964,233.964,0,0,0,109.2,191.725c1.438,2.357,2.985,4.65,4.535,6.936a37.362,37.362,0,0,0,13.743,12.517,45.578,45.578,0,0,0,21.717,5.717,1.757,1.757,0,0,0,1.048-.3,22.238,22.238,0,0,1,9.107-4.359,36.081,36.081,0,0,0,9.348-4.145c1.61-.92,3.242-1.8,4.815-2.785,2.448-1.526,4.838-3.145,7.28-4.68,4.714-2.964,9.4-5.973,14.186-8.821,4.386-2.611,8.809-5.181,13.363-7.478a14.747,14.747,0,0,0,5.355-4.195c1.648-2.166,3.329-4.308,4.9-6.526a22.708,22.708,0,0,0,2.573-4.269c2.556-6.136,3.908-12.622,5.218-19.106a10.717,10.717,0,0,0-.027-3.314c-.4-3.4-.87-6.785.458-9.943,1.654,2.165,3.41,4.305,4.957,6.586.467.689.857.766,1.377.49a8.287,8.287,0,0,0,2.245-1.538,30.239,30.239,0,0,0,2.576-3.395,12.887,12.887,0,0,1,4.631-4.307,13.182,13.182,0,0,0,6.032-6.192,46.871,46.871,0,0,0,1.579-4.589l-.357-.178c-2.991,6.115-8,8.446-14.631,7.745,1.168,1.851,1.036,3.011-.8,4.06a10.942,10.942,0,0,1-4.208,1.4c-2.668.268-4.065-1.3-3.83-3.985.086-.979.325-1.943.479-2.831a28.991,28.991,0,0,1-18.3-12.634c-.714,1.427-1.431,2.843-2.133,4.267-1.609,3.265-3.257,6.513-4.8,9.81-.838,1.794-1.426,3.679-.272,5.646m-28.859,107.3.2.391a6.659,6.659,0,0,1-.837,1.13,30.677,30.677,0,0,1-3,2.476c-6.012,4.105-12.055,8.167-18.086,12.245-.382.259-.761.523-1.141.785a69.762,69.762,0,0,0,9.1-3.259c6.076-2.9,12.027-6.063,18.042-9.094,2.714-1.367,2.727-1.34,1.793-4.338-.907-2.909-1.567-3.206-4.232-1.9-1.108.542-1.715.348-2.187-.791-.271-.653-.421-1.356-.641-2.032-.632-1.938-1.473-2.48-3.465-2.214-1.327.177-2.652.364-3.972.585a1.952,1.952,0,0,0-.889.4c-5.307,4.416-10.64,8.8-15.879,13.3-1.806,1.55-3.372,3.38-5.047,5.082a2.482,2.482,0,0,0,1.393-.346c4.41-2.218,8.757-4.572,13.245-6.617,4.182-1.906,8.5-3.51,12.788-5.185a17.533,17.533,0,0,1,2.813-.611m48.567-53.6a200.683,200.683,0,0,0,19.5-32.166c-1.23-.624-2.323-1.562-3.507-1.7a9.478,9.478,0,0,1-5.262-2.4c-.619-.529-1.219-1.08-1.759-1.559a50.047,50.047,0,0,1-1.007,7.193c-1.5,5.223-3.3,10.36-4.979,15.53a13.3,13.3,0,0,1-5.263,7.267,1.975,1.975,0,0,0-.022,3.367,5.908,5.908,0,0,1,2.3,4.462M170.36,28.728l-.166.09a23.208,23.208,0,0,1,.747,2.638q1.65,10.092,3.224,20.2c.676,4.395,1.361,8.782,3.4,12.807a10.065,10.065,0,0,0,10.079,5.051c.2-1.759.2-1.781-1.4-1.927a9.133,9.133,0,0,1-7.08-4.2,20.013,20.013,0,0,1-3.023-9.593c-.027-.29,0-.585,0-.878,3.7,9.241,5.809,12.447,9.195,13.538a12.742,12.742,0,0,1-4.288-6.825c-1.387-4.652-2.788-9.3-4.128-13.966-.711-2.474-1.305-4.98-1.953-7.472,2.387,5.811,5.172,11.446,6.575,17.618a52.421,52.421,0,0,0,2.8,8.156,6.366,6.366,0,0,0,3.381,3.389c-.25-2.876.232-5.573-.77-8.127-2.578-6.569-5.59-12.909-10.079-18.437a1.136,1.136,0,0,1-.117-.349l.672.168L170.36,28.728m43.234,158.777c-2.637,2.159-5.314,4.355-7.995,6.545-1.669,1.364-1.733,4.973-.241,6.526,3.149,3.279,6.6,6.3,9,10.243a14.034,14.034,0,0,0,.906,1.2,1.707,1.707,0,0,0,.159-.989c-.284-2.659-.6-5.315-.851-7.977a7.133,7.133,0,0,1,1.868-5.771c1.253-1.372,2.3-2.932,3.369-4.322l-6.214-5.452M75.526,121.445c3.161,5.15,9.076,6.448,13.544,9.868a5.187,5.187,0,0,0-.146-2.544,4.7,4.7,0,0,0-1.529-1.511c-1.752-1.351-3.53-2.668-5.311-3.98a8.259,8.259,0,0,0-1.663-1.059c-3.786-1.562-6.78-3.817-7.529-8.18a.983.983,0,0,0-.726-.614c-.225,0-.618.388-.664.652-.981,5.733.243,10.8,4.954,14.522a23.365,23.365,0,0,0,5.613,2.956c2.82,1.163,5.734,2.1,8.608,3.13l.246-.424a4.787,4.787,0,0,0-1.146-.8c-1.192-.387-2.415-.675-3.628-.994-3.223-.846-6.338-1.921-8.847-4.244a10.488,10.488,0,0,1-3.291-5.577,15.691,15.691,0,0,0,5.759,5.163,11.689,11.689,0,0,1-4.243-6.365m26.665,83.723c-2.434,0-4.652,1.99-4.651,4.19,0,1.437.882,2.437,1.648,3.553.983,1.431,2.145.391,3.207.465,1.55.109,3.866-2.391,3.858-4.054a4.324,4.324,0,0,0-4.062-4.155m53.905,31.2c-5.655-2.5-10.826-.52-16.017.124.211.694.421,1.24.54,1.8a1.938,1.938,0,0,0,2.048,1.663,8.034,8.034,0,0,0,2.243-.181c2.826-.757,5.635-1.577,8.441-2.4.818-.241,1.605-.585,2.745-1.007m-55.834-16.174c-2.082.009-3.736,1.3-3.748,2.918-.013,1.74,2.241,4.171,3.857,4.16a3.858,3.858,0,0,0,3.8-3.845c-.007-1.971-1.545-3.243-3.91-3.233m126.7-106.684a36.068,36.068,0,0,0,.037,5.018c.678,4.743,2.928,7.081,7.584,8.151,1.422.327,2.851.64,4.292.853a7.377,7.377,0,0,0,1.823-.182l-.045-.326c-.4-.025-.81-.039-1.213-.075-2.756-.251-5.387-.837-7.405-2.935a10.974,10.974,0,0,1-2.818-7.831c-.019-1.56-.519-2.436-2.256-2.673M153.914,69.337a21.114,21.114,0,0,0,1.483,1.689,30.679,30.679,0,0,0,17.665,7.7c4.98.593,10.1,0,15.163-.111a19.69,19.69,0,0,0,2.729-.459l-.848-1.5A12.9,12.9,0,0,1,187.4,77.67a85.786,85.786,0,0,1-10.209,1,22.129,22.129,0,0,1-14.982-5.2,2.664,2.664,0,0,0-.971-.547,21.849,21.849,0,0,1-7.32-3.59M117.077,41.348l.105.35a16.136,16.136,0,0,0,2.154-.772,11.765,11.765,0,0,1,6.085-1.714c1.862.1,3.259,1.035,3.454,2.861a23.316,23.316,0,0,1-.41,4.916,16.254,16.254,0,0,1-.336,1.606,9.8,9.8,0,0,0,3.715-7.662c0-.336-.365-.677-.561-1.016.174,2.034.16,3.848-1.361,5.295.072-.488.273-.945.39-1.422a4.314,4.314,0,0,0-2.75-5.145,10.421,10.421,0,0,0-10.485,2.7M72.3,112.717l.448-.07a20.792,20.792,0,0,1,2.355-8.5.725.725,0,0,0-.149-.657c-1.049-.989-2.131-1.943-3.2-2.908l-.385.084c-.027,3.118-.131,6.238-.033,9.353a9.331,9.331,0,0,0,.967,2.7m133.35-2.811c.529-3.844-2.11-10.66-4.663-12.134.131,4.589,1.359,8.674,4.663,12.134M81.737,79.224a1.867,1.867,0,0,0,.241.326c.238.17.49.32.728.488a12.337,12.337,0,0,1,4.886,5.887A8.1,8.1,0,0,1,85.53,94.57a5.894,5.894,0,0,1-5.016,1.5l-.33,1.7c4.736-.8,8.833-4.946,9.13-9.1.273-3.818-3.019-7.995-7.578-9.434m5.819,19.21c2.731-1.1,6.963-.683,9.012,1.076-3.177.136-6.257-.441-9.314.034,3.7-.135,6.838,2.184,10.472,2.325l-3.091-1.613c5.2-.783,8.2,2.311,11.108,5.66a5.6,5.6,0,0,0-.976-1.647,21.37,21.37,0,0,0-7.006-5.194,14.524,14.524,0,0,0-7.365-1.74,3.452,3.452,0,0,0-2.84,1.1m-7.218,36.573-.442.108c.851,2.507.146,4.707-1.081,6.849-1.185,2.069-.869,2.617,1.539,2.992.124.019.247.047.372.055,2.334.152,4.668.32,7,.428.3.014.607-.291.911-.449l-.1-.332a16.909,16.909,0,0,0-2.06-.332c-1.251-.053-2.508-.04-3.76,0-2.477.07-3.285-.907-2.689-3.316.13-.527.329-1.041.422-1.574a26.6,26.6,0,0,0,.443-3.217c.02-.392-.363-.8-.562-1.207m150.8-50.582c-1.959,4.123-2.039,6.176-.328,9.665.452-1.111,1.217-2.115,1.186-3.092a61.924,61.924,0,0,0-.858-6.573M106.56,50.379c-3.7-.865-7.231-1.539-10.351,1.339,2.855.238,8.944-.53,10.351-1.339M94.8,77.57a36.84,36.84,0,0,0-3.359-1.829,11.394,11.394,0,0,1-5.494-4.759,21.822,21.822,0,0,0-2.12-2.571c.831,4.486,5.856,8.62,10.973,9.158m-7.915,64.787-4.754-3.667-.876,3.667Zm150.053,4.393c3.668,1.277,7.206,1.136,10.753.914a18.644,18.644,0,0,1-8.9-2.534l-1.849,1.621M127.725,45.253c.214-1.528.142-2.962-1.21-3.945-1.088-.791-3.134-.669-4.634.262,2.432.513,4.569,1.376,5.843,3.683m-46.174,90.3-.34.309.918,1.963c.788-.5,1.02.456,1.55.587.954.236,1.93.379,2.9.56l.08-.385-5.106-3.034M139.25,9.248l-.118-.431-11.882,3.139.153.56L139.25,9.248M81.286,77.453l-4.522-2.881c.578,2.736,1.815,3.569,4.522,2.881m101.861,3.195c2.474-.271,5.414,1.485,7.177-1.494l-7.177,1.494M225.443,112l-.485.146c-.119,2.216-.655,4.451.268,6.7.23-1.873.489-3.644.638-5.424a4.181,4.181,0,0,0-.421-1.418M107.361,123.242l-.106-.274-3.149-.216c-.068,1.035-.123,1.871-.189,2.873l3.444-2.383m-31.9-6.921a9.664,9.664,0,0,0,4.081,4.419c-.658-2.287-2.463-3.266-4.081-4.419m17.357,47.145-2.533-4.5a4.382,4.382,0,0,0,2.533,4.5M138.327,12.547h5.766c-2.11-1.148-3.948-.271-5.766,0M97.786,35.16c3.578.327,3.578.327,4.71-.526l-4.71.526m133.57,95.985-.566-.48-1.462,1.828.524.427,1.5-1.775M148.7,73.977l-.045.38,2.743.791.089-.306c-.969-.16-1.547-1.581-2.788-.865m-25.859-60.46.05.282L126,13.436l-.107-.592-3.054.672M97.4,124.181c-.513-.365-.769-.685-1.045-.7-.235-.016-.493.316-.74.493.206.26.376.676.629.736s.583-.246,1.156-.527" transform="translate(-6421.548 -3973.07)" fill="#263238"/>
    <path id="Path_19479" data-name="Path 19479" d="M1021.48,835.068c13.164-3.963,22.284-13.077,30.559-23.263a90.322,90.322,0,0,0,11.808-18.915,36.28,36.28,0,0,0,2.334-8.812,58.988,58.988,0,0,1,2.748-9.878c1.663-4.393,4.882-7.637,8.7-10.313,1.946-1.364,3.826-2.821,5.914-4.367a22.923,22.923,0,0,1-1.7,2.164c-1.335,1.327-2.776,2.547-4.112,3.873-3.748,3.719-5.495,8.426-6.539,13.464-.671,3.237-1.32,6.479-1.98,9.719a35.261,35.261,0,0,1-4.6,11.747c-5.333,8.55-11.133,16.74-18.685,23.52-6.061,5.443-12.891,9.431-21.086,10.687-1.112.17-2.238.252-3.358.375" transform="translate(-7163.017 -4541.731)" fill="#263238"/>
    <path id="Path_19480" data-name="Path 19480" d="M669.8,1023.523a11.172,11.172,0,0,0,8.415-12.016,3.565,3.565,0,0,0-2.7-3.245,8.5,8.5,0,0,0-9.652,2.975,14.4,14.4,0,0,0-3.168,8.312,17.537,17.537,0,0,0,.441,3.272,7.136,7.136,0,0,1-1.187-1.214c-4.225-6.934.609-16.724,8.649-17.394a28.12,28.12,0,0,1,5.991.3,5.667,5.667,0,0,1,4.531,3.579,11.455,11.455,0,0,1-1.071,11.471c-2.224,3.369-5.562,4.507-9.477,4.206a4.778,4.778,0,0,1-.621-.084c-.058-.012-.1-.1-.148-.16" transform="translate(-6892.66 -4724.891)" fill="#263238"/>
    <path id="Path_19481" data-name="Path 19481" d="M540.829,110.287a28.22,28.22,0,0,1,5.879,9.318c1.57,4.169,1.62,8.5,1.545,12.88-.06,3.5.043,7.015.255,10.512a11.732,11.732,0,0,0,1.083,3.586c.9,2.191,1.391,2.6,4.056,3.7-2.779-3.865-3.481-8.061-3.6-12.418,1.641,4.331,2.192,9.192,6.082,12.4-4.856-6.145-4.756-13.379-4.45-20.654.363,2.556.6,5.137,1.124,7.66a52.7,52.7,0,0,0,2.044,7.49c1.38,3.763,3.76,6.7,8.015,8l-1.05.364,2.5.915c-4.07.624-7.3-1.575-10.8-2.6l-.154.376c.754.4,1.485.848,2.268,1.175.8.334,1.651.547,2.445.9a10.9,10.9,0,0,1-7.376-3.022c-.687-.67-1.4-1.311-2.129-1.939-3.147-2.723-4.35-6.369-4.848-10.321a36.366,36.366,0,0,1-.307-4.882c.029-3.051.183-6.1.429-9.162.949,6.6.168,13.458,3.183,19.713-.261-6.557-.348-13.127-.84-19.667a27.954,27.954,0,0,0-4.81-13.078c-.182-.281-.369-.559-.54-.846-.033-.056,0-.148,0-.4" transform="translate(-6803.138 -4055.64)" fill="#263238"/>
    <path id="Path_19482" data-name="Path 19482" d="M670.011,154.473c3.1,2.479,6.271,4.867,9.257,7.471a27.541,27.541,0,0,1,4.8,5.217c1.7,2.53,1.308,5.42-.637,7.8.143-.345.274-.7.432-1.035a6.078,6.078,0,0,0-1.067-7.214,40.2,40.2,0,0,0-4.386-3.721c-2.643-2.108-5.318-4.175-7.981-6.259a1.6,1.6,0,0,0-.511-.3c2.949,5.175,3.964,10.58,2.2,16.366a27.421,27.421,0,0,0-3.019-14.136c-2.227-4.4-5.324-8.174-8.438-12l.844.48a298.033,298.033,0,0,1-19.432-26.63c.289.361.572.726.867,1.082q9.582,11.554,19.159,23.111c1.705,2.066,3.313,4.212,4.994,6.3a9.755,9.755,0,0,0,1.188,1.071l1.726,2.387" transform="translate(-6878.952 -4063.303)" fill="#263238"/>
    <path id="Path_19483" data-name="Path 19483" d="M696.2,87.189c-5.65-9.962-13.6-18.1-21.205-26.5,11.418,9.2,21.319,19.515,25.255,34.229-.991-1.952-2.01-3.891-2.96-5.863a2.4,2.4,0,0,0-1.772-1.319,12.838,12.838,0,0,1-4.682-1.906A126.159,126.159,0,0,1,680,75.954c-4.9-5.146-9.48-10.6-14.191-15.925a2.609,2.609,0,0,1-.608-1.115c1.7,1.615,3.359,3.28,5.112,4.837,4.87,4.323,9,9.324,13.261,14.217a35.737,35.737,0,0,0,8.722,7.686c1.177.69,2.442,1.227,3.667,1.834l.241-.3" transform="translate(-6896.262 -4017.177)" fill="#263238"/>
    <path id="Path_19484" data-name="Path 19484" d="M11.323,845.953a12.683,12.683,0,0,1-1.291,1.582,15.253,15.253,0,0,1-1.852,1.287c-2.824,1.87-3.589,3.723-2.663,6.965.5,1.753,1.229,3.441,1.978,5.5l1.831-2.295.4.331a29.143,29.143,0,0,1-2.662,3.674c-2.524,2.569-3.249,5.627-3.047,9.091a46.9,46.9,0,0,1-.138,6.283l-.42-1.253c-.343,3.071-.725,5.977-.979,8.895-.362,4.166-.745,8.335-.9,12.511a16.259,16.259,0,0,0,2.071,9.164,12.55,12.55,0,0,1-1.2-1.194A12.675,12.675,0,0,1,.1,899.449,56.359,56.359,0,0,1,1.42,884.613c.256-1.357.531-2.711.84-4.056a19.951,19.951,0,0,0,.415-9.028,8.35,8.35,0,0,1,3.234-9.021c1.3-1,1.184-1.222.321-2.573a26.425,26.425,0,0,1-2.366-4.259A5.229,5.229,0,0,1,5.758,849a26.375,26.375,0,0,1,2.535-1.619c.924-.557,1.868-1.082,2.8-1.621l.226.189" transform="translate(-6398.219 -4606.303)" fill="#263238"/>
    <path id="Path_19485" data-name="Path 19485" d="M550.578,209.667a21.737,21.737,0,0,1-12.977-2.188c-8.732-4.508-11.313-12.411-11.924-21.387a57.2,57.2,0,0,1,.206-6.268,1.844,1.844,0,0,1,.251-.788c.491,5.006.935,10,2.473,14.811a6.26,6.26,0,0,0,.475.82,34.732,34.732,0,0,1,.729-15.088c0,3.549-.208,7.114.052,10.644a21.93,21.93,0,0,0,4.6,12.413,18.557,18.557,0,0,0,5.27,4.292,23.666,23.666,0,0,0,9.385,2.73,11.589,11.589,0,0,0,1.463.009" transform="translate(-6791.771 -4107.114)" fill="#263238"/>
    <path id="Path_19486" data-name="Path 19486" d="M808.75,182.212l12.311,20.838-1.476-11.941.5-.07c.075.577.165,1.153.224,1.731.575,5.621,1.916,10.993,5.521,15.508,4.542,5.688,10.665,7.341,17.626,6.492,2.916-.356,4.373-2.376,5.076-5.265a6.3,6.3,0,0,1-4.942,6.568,18.821,18.821,0,0,1-9.928-.3c-5.8-1.766-9.373-5.872-11.666-11.3a5.682,5.682,0,0,0-1.318-1.472,25.456,25.456,0,0,1-2.526-2.579c-3.568-4.9-6.073-10.389-8.589-15.866-.341-.743-.651-1.5-.976-2.252Z" transform="translate(-7003.619 -4109.492)" fill="#263238"/>
    <path id="Path_19487" data-name="Path 19487" d="M713.812,80.564c-1.094-9.4-6.613-16.41-12.6-23.074a89.66,89.66,0,0,0-26.172-20.433c-1.934-.98-3.974-1.749-5.96-2.718.308.06.622.1.924.181a56.889,56.889,0,0,1,18.613,9.386c8.105,5.87,15.179,12.759,20.445,21.346,2.538,4.137,4.52,8.5,4.7,13.477.017.46.053.919.072,1.378.006.152-.015.3-.023.457" transform="translate(-6899.169 -3998.776)" fill="#263238"/>
    <path id="Path_19488" data-name="Path 19488" d="M600.254,116.221c-.433-3.889-.859-7.779-1.3-11.666a27.781,27.781,0,0,0-5.334-12.971C588.727,84.645,584,77.589,579.033,70.7c-1.9-2.628-4.247-4.927-6.405-7.364-.354-.4-.779-.736-1.44-1.351a3.659,3.659,0,0,1,.764.217,37.093,37.093,0,0,1,9.108,8.9c4.244,6.169,8.449,12.377,13,18.319a29.3,29.3,0,0,1,6.282,19.017c-.052,2.593-.008,5.187-.008,7.78h-.077" transform="translate(-6825.876 -4019.479)" fill="#263238"/>
    <path id="Path_19489" data-name="Path 19489" d="M889.179,340.183l2.747,2.339-8.094-10.6.318-.254q2.793,3.071,5.585,6.143c3.906,4.311,7.881,8.58,10.825,13.639a31.764,31.764,0,0,1,2.6,5.816,8.552,8.552,0,0,1-.968,7.331c1.507-5.382-.984-9.673-3.761-13.861a56.083,56.083,0,0,0-3.651-4.8,28.851,28.851,0,0,1,3.295,10.381l-8.9-16.134" transform="translate(-7059.958 -4221.394)" fill="#263238"/>
    <path id="Path_19490" data-name="Path 19490" d="M187.724,256.585a19.97,19.97,0,0,0-.618,3.886,50.1,50.1,0,0,0,.725,7.449,9.269,9.269,0,0,0,3.181,5.161A6.629,6.629,0,0,1,187,269.91a13.156,13.156,0,0,1-1.251-9.256c.319-1.8,1.008-3.529,1.458-5.308a2.158,2.158,0,0,0-.094-1.484c-3.1-5.138-2.558-10.052.873-14.771,1.1-1.512,2.361-2.907,3.548-4.355l.263.189c-.6.911-1.25,1.791-1.777,2.741a43.221,43.221,0,0,0-2.335,4.572c-1.9,4.664-.805,8.861,2.264,12.647,1.5,1.85,3.14,3.585,4.636,5.437a16.7,16.7,0,0,1,1.71,2.768,2.437,2.437,0,0,1,.108,1.529c-.6-2.834-2.743-4.286-4.805-5.865-1.348-1.033-2.518-2.3-3.894-3.579v1.443Z" transform="translate(-6536.786 -4148.817)" fill="#263238"/>
    <path id="Path_19491" data-name="Path 19491" d="M768.4,129.894c-2.68-4.937-5.173-9.574-7.707-14.189a58.173,58.173,0,0,0-17.847-20.084c-.377-.263-.741-.546-1.1-.827-.061-.047-.087-.138-.178-.29a1.536,1.536,0,0,1,.463.027c5.664,2.447,10.425,5.943,13.693,11.332a58.816,58.816,0,0,0,4.454,6.055,42.434,42.434,0,0,1,8.1,17.1c.045.194.057.4.123.879" transform="translate(-6953.44 -4043.821)" fill="#263238"/>
    <path id="Path_19492" data-name="Path 19492" d="M413.439,142.723a35.4,35.4,0,0,1,2.666-3.806c2.849-3.141,5.633-6.308,7.447-10.2a14.663,14.663,0,0,0,1.572-8.517c-.608-4-3.162-6.53-6.56-8.357-.937-.5-1.925-.913-3.19-1.507,7.856,1.32,13.336,6.629,10.98,15.2-1.423,5.175-4.614,9.224-8.409,12.872-1.466,1.409-2.87,2.884-4.3,4.329l-.2-.013" transform="translate(-6707.767 -4055.678)" fill="#263238"/>
    <path id="Path_19493" data-name="Path 19493" d="M388.131,96.753a14.028,14.028,0,0,0-4.012-5.981c-4.656-3.772-9.875-3.915-15.316-2.213a21.588,21.588,0,0,0-9.075,5.876,15.64,15.64,0,0,1,5.527-5.743c6.111-3.717,12.3-3.925,18.493-.161a9,9,0,0,1,4.383,8.222" transform="translate(-6667.553 -4037.311)" fill="#263238"/>
    <path id="Path_19494" data-name="Path 19494" d="M903.474,376.333c2.674,6.978,5.573,13.881,7.937,20.963a13.294,13.294,0,0,1-1.732,12.584,4.055,4.055,0,0,1-.855.868c2.708-4.687,2.217-9.553.709-14.358-1.515-4.827-3.38-9.543-5.009-14.336-.615-1.811-1-3.7-1.486-5.554l.436-.168" transform="translate(-7074.338 -4254.833)" fill="#263238"/>
    <path id="Path_19495" data-name="Path 19495" d="M536.544,23.663c9.013-.659,17.954-.794,26.3,3.393a24.232,24.232,0,0,1,7.367,5.581c-1.232-.774-2.433-1.6-3.7-2.313-5.685-3.183-11.9-4.657-18.289-5.453-3.529-.44-7.077-.721-10.615-1.076-.356-.036-.711-.087-1.066-.131" transform="translate(-6799.938 -3990.523)" fill="#263238"/>
    <path id="Path_19496" data-name="Path 19496" d="M900.671,318.6c4.038,3.5,8.443,6.215,13.938,6.45,5.386.23,10.4-.8,14.477-4.706-2.066,2.925-4.53,5.345-8.248,5.706a78.752,78.752,0,0,1-8.89.269,10.9,10.9,0,0,1-7.75-3.368c-1.29-1.3-2.5-2.683-3.746-4.029l.22-.323" transform="translate(-7072.401 -4211.608)" fill="#263238"/>
    <path id="Path_19497" data-name="Path 19497" d="M856.239,373.032c2.044,5.6,4.629,11.073,3.916,17.271-.6,5.229-4.762,9.093-9.6,8.95a3.267,3.267,0,0,1-2.854-1.33c2.428,1.351,4.591.407,6.658-.771a8.162,8.162,0,0,0,3.864-5.618c.834-3.687.228-7.322-.444-10.945-.469-2.527-1.023-5.038-1.539-7.556" transform="translate(-7032.906 -4252.361)" fill="#263238"/>
    <path id="Path_19498" data-name="Path 19498" d="M376.1,70.485c-2.376-3.541-5.946-4.78-9.929-5.072a26.4,26.4,0,0,0-14.331,2.932,31.5,31.5,0,0,0-3.434,2.386,6.48,6.48,0,0,1,2.8-3.157,24.016,24.016,0,0,1,13.688-3.867,14.639,14.639,0,0,1,6.791,1.551,8.526,8.526,0,0,1,4.414,5.226" transform="translate(-6659.073 -4020.766)" fill="#263238"/>
    <path id="Path_19499" data-name="Path 19499" d="M358.342,119.247c5.719-2.809,11.427-2.961,16.995.316a8.615,8.615,0,0,1,4.357,7.211c-1.956-5.024-5.972-7.222-10.973-7.833-4.846-.591-9.447,0-13.335,4.094.326-.661.49-1.035.69-1.388s.446-.706.67-1.058l1.6-1.342" transform="translate(-6664.301 -4060.758)" fill="#263238"/>
    <path id="Path_19500" data-name="Path 19500" d="M712.574,92.052c-.7-.416-1.411-.806-2.088-1.252A44.189,44.189,0,0,1,700.147,80.63c-2.725-3.5-5.341-7.086-8-10.636a2.72,2.72,0,0,1-.444-.847c7.573,7.032,12.939,16.1,21.186,22.489l-.314.416" transform="translate(-6916.107 -4024.838)" fill="#263238"/>
    <path id="Path_19501" data-name="Path 19501" d="M738.442,232.563l-1.726-2.387-3.241-5.17.22-.185c.465.5.966.962,1.39,1.49,3.712,4.627,8.673,7.689,13.555,10.85a8.647,8.647,0,0,1,3.522,5.017c-.158.007-.275.034-.287.01A9.938,9.938,0,0,0,747.1,237.8c-2.7-1.388-5.2-3.153-7.8-4.753-.281-.173-.576-.323-.865-.484" transform="translate(-6947.383 -4141.394)" fill="#263238"/>
    <path id="Path_19502" data-name="Path 19502" d="M867.169,370.643c1.371-4.892.663-9.542.157-14.172-.385-3.523-.981-7.023-1.491-10.591.08.058.194.1.219.165,2.116,5.881,3.843,11.846,3.66,18.185a9.324,9.324,0,0,1-1.553,5.335,13.422,13.422,0,0,1-.993,1.078" transform="translate(-7046.483 -4232.032)" fill="#263238"/>
    <path id="Path_19503" data-name="Path 19503" d="M461.3,146.954c-.523-3.865-.312-7.654,1.657-11.063a20.568,20.568,0,0,0,2.461-13.429,1.041,1.041,0,0,1,.193-.807c.22.716.457,1.428.657,2.15a14.593,14.593,0,0,1-.837,10.745,39.02,39.02,0,0,0-4.013,11.956,3.821,3.821,0,0,1-.117.447" transform="translate(-6743.417 -4064.152)" fill="#263238"/>
    <path id="Path_19504" data-name="Path 19504" d="M881.183,344.029c-1.322-9.4-4.743-18.261-7.019-27.407,3.636,8.81,8.091,17.411,7.019,27.407" transform="translate(-7052.719 -4210.126)" fill="#263238"/>
    <path id="Path_19505" data-name="Path 19505" d="M578.9,265.815c-4.252,4-16.871-1.16-20.054-8.574,5.38,6.143,12.358,8.381,20.054,8.574" transform="translate(-6816.634 -4165.667)" fill="#263238"/>
    <path id="Path_19506" data-name="Path 19506" d="M866.191,545.25c9.673,1.453,17.868-1.617,21.845-8.089a23.449,23.449,0,0,1-1.371,3.164c-2.286,3.724-5.849,5.475-10.012,6.193a18.1,18.1,0,0,1-9.151-.7c-.448-.156-.875-.374-1.311-.563" transform="translate(-7046.75 -4375.248)"/>
    <path id="Path_19507" data-name="Path 19507" d="M960.255,367.8a14.587,14.587,0,0,1-10.911-1.014c-3.9-2.01-7.019-5.041-10.156-8.072,1.762,1.087,3.529,2.167,5.285,3.262,3.626,2.262,7.279,4.475,11.565,5.272,1.392.259,2.811.371,4.218.551" transform="translate(-7101.403 -4241.639)" fill="#263238"/>
    <path id="Path_19508" data-name="Path 19508" d="M878.338,573.1a13.909,13.909,0,0,1-4.975,4.535c-4.9,2.709-10.166,2.728-15.5,1.969a6.543,6.543,0,0,1-1.968-1.039,30.722,30.722,0,0,0,22.444-5.465" transform="translate(-7039.04 -4402.159)"/>
    <path id="Path_19509" data-name="Path 19509" d="M731.934,194.057c6.862,2.91,12.7,7.021,16.355,13.8l-16.355-13.8" transform="translate(-6946.229 -4118.36)" fill="#263238"/>
    <path id="Path_19510" data-name="Path 19510" d="M356.6,82.849a20.112,20.112,0,0,1,20.945-5.932A40.221,40.221,0,0,0,356.6,82.849" transform="translate(-6665.213 -4029.973)" fill="#263238"/>
    <path id="Path_19511" data-name="Path 19511" d="M549.28,114.055c-1.035-7.525-2.848-14.728-8.394-20.389,6.6,3.487,9.7,11.614,8.394,20.389" transform="translate(-6803.189 -4043.196)" fill="#263238"/>
    <path id="Path_19512" data-name="Path 19512" d="M494.615,45.038c5.474-1.626,14.537,1.729,17.488,6.636-5.79-2.963-11.287-5.75-17.488-6.636" transform="translate(-6768.545 -4006.477)" fill="#263238"/>
    <path id="Path_19513" data-name="Path 19513" d="M924.363,345.143c6.847.964,13.691,3.295,20.122-1.42a8.309,8.309,0,0,1-5.282,3.942c-3.67.964-7.227.268-10.721-.888-1.4-.463-2.748-1.085-4.119-1.635" transform="translate(-7090.304 -4230.417)" fill="#263238"/>
    <path id="Path_19514" data-name="Path 19514" d="M353.657,109.3l-1.6,1.342-2.932,3.129c.05-4.873,9.261-11.282,14.684-9.686-3.723,1.337-7.25,2.691-10.155,5.216" transform="translate(-6659.617 -4050.807)" fill="#263238"/>
    <path id="Path_19515" data-name="Path 19515" d="M493.067,114.691c5.332,1.714,6.056,11.392,1.8,16.053,1.107-5.6,2.532-11.128-1.8-16.053" transform="translate(-6767.386 -4058.938)" fill="#263238"/>
    <path id="Path_19516" data-name="Path 19516" d="M459.906,228.082c.879,4.648,1.58,9.259,5.655,12.5-4.761-.656-7.793-7.47-5.655-12.5" transform="translate(-6742.036 -4143.835)" fill="#263238"/>
    <path id="Path_19517" data-name="Path 19517" d="M195.542,321.73a25.38,25.38,0,0,1,4.083,9.195,4.9,4.9,0,0,1-1.162,4.719c-.081-4.42-1.524-8.415-2.611-12.485-.127-.476-.2-.967-.291-1.456l-.018.027" transform="translate(-6544.625 -4213.93)" fill="#263238"/>
    <path id="Path_19518" data-name="Path 19518" d="M850.975,435.566c-3.15,1.046-5.578-.633-5.606-3.751a9.249,9.249,0,0,1,2.8-6.389c-1.317,4.078-3.136,8.2,2.8,10.14" transform="translate(-7031.16 -4291.59)" fill="#263238"/>
    <path id="Path_19519" data-name="Path 19519" d="M519.594,83.934l-6.486-6.715c2.977.277,6.255,3.592,6.486,6.715" transform="translate(-6782.391 -4030.882)" fill="#263238"/>
    <path id="Path_19520" data-name="Path 19520" d="M536.894,125.461a10.454,10.454,0,0,1,1.7,9.919l-1.7-9.919" transform="translate(-6800.2 -4067.001)" fill="#263238"/>
    <path id="Path_19522" data-name="Path 19522" d="M503.566,953.616a17.557,17.557,0,0,0-2.813.611c-4.284,1.675-8.606,3.279-12.788,5.185-4.488,2.045-8.835,4.4-13.245,6.617a2.483,2.483,0,0,1-1.393.346c1.676-1.7,3.241-3.532,5.048-5.082,5.239-4.5,10.572-8.881,15.879-13.3a1.951,1.951,0,0,1,.889-.4c1.32-.22,2.646-.408,3.972-.584,1.992-.266,2.834.276,3.466,2.214.22.676.369,1.379.641,2.032.472,1.138,1.08,1.333,2.187.791,2.664-1.3,3.325-1.006,4.232,1.9.934,3,.921,2.971-1.793,4.338-6.015,3.03-11.966,6.193-18.042,9.094a69.694,69.694,0,0,1-9.1,3.26c.38-.262.759-.527,1.142-.785,6.032-4.077,12.074-8.139,18.086-12.245a30.671,30.671,0,0,0,3-2.476,6.655,6.655,0,0,0,.837-1.13l-.2-.391" transform="translate(-6752.606 -4682.062)" fill="#fff"/>
    <path id="Path_19523" data-name="Path 19523" d="M777.3,647.51a5.908,5.908,0,0,0-2.3-4.462,1.975,1.975,0,0,1,.022-3.367,13.306,13.306,0,0,0,5.263-7.267c1.682-5.17,3.482-10.307,4.979-15.53a50.053,50.053,0,0,0,1.007-7.192c.54.479,1.14,1.031,1.759,1.559a9.48,9.48,0,0,0,5.262,2.4c1.184.133,2.277,1.071,3.507,1.7a200.689,200.689,0,0,1-19.5,32.166" transform="translate(-6977.773 -4429.552)" fill="#fff"/>
    <path id="Path_19524" data-name="Path 19524" d="M584.622,114.315l7.066,11.871-.672-.168a1.133,1.133,0,0,0,.117.349c4.49,5.528,7.5,11.868,10.08,18.437,1,2.554.52,5.251.77,8.127a6.365,6.365,0,0,1-3.38-3.388,52.444,52.444,0,0,1-2.805-8.156c-1.4-6.172-4.188-11.807-6.575-17.618.647,2.492,1.242,5,1.952,7.472,1.34,4.666,2.741,9.314,4.128,13.966a12.742,12.742,0,0,0,4.288,6.825c-3.385-1.091-5.491-4.3-9.2-13.538,0,.293-.023.588,0,.878a20.014,20.014,0,0,0,3.024,9.593,9.132,9.132,0,0,0,7.08,4.2c1.6.147,1.6.168,1.4,1.928a10.065,10.065,0,0,1-10.079-5.051c-2.035-4.025-2.72-8.412-3.4-12.807q-1.555-10.107-3.224-20.2a23.215,23.215,0,0,0-.747-2.637l.166-.09m11.009,20.7c.188,5.059.929,9.981,3.611,14.4a39.553,39.553,0,0,0-3.611-14.4" transform="translate(-6835.81 -4058.656)" fill="#fff"/>
    <path id="Path_19525" data-name="Path 19525" d="M729.449,746.178l6.214,5.452c-1.07,1.389-2.116,2.95-3.369,4.322a7.133,7.133,0,0,0-1.868,5.771c.25,2.662.567,5.318.851,7.977a1.708,1.708,0,0,1-.159.989,14.018,14.018,0,0,1-.906-1.2c-2.4-3.944-5.849-6.964-9-10.243-1.492-1.553-1.428-5.162.241-6.526,2.681-2.19,5.358-4.386,7.995-6.545" transform="translate(-6937.403 -4531.742)" fill="#fff"/>
    <path id="Path_19526" data-name="Path 19526" d="M194.8,459.388a11.69,11.69,0,0,0,4.243,6.365,15.692,15.692,0,0,1-5.759-5.163,10.491,10.491,0,0,0,3.291,5.577c2.509,2.323,5.625,3.4,8.847,4.244,1.213.318,2.437.607,3.628.994a4.776,4.776,0,0,1,1.146.8l-.246.424c-2.874-1.032-5.788-1.966-8.608-3.13a23.362,23.362,0,0,1-5.613-2.956c-4.71-3.718-5.935-8.789-4.954-14.522.045-.264.438-.656.663-.652a.981.981,0,0,1,.726.613c.749,4.363,3.743,6.618,7.529,8.18a8.253,8.253,0,0,1,1.663,1.059c1.781,1.312,3.559,2.629,5.311,3.98a4.7,4.7,0,0,1,1.529,1.512,5.181,5.181,0,0,1,.146,2.544c-4.469-3.42-10.383-4.718-13.544-9.868" transform="translate(-6540.82 -4311.013)" fill="#fff"/>
    <path id="Path_19528" data-name="Path 19528" d="M480.632,936.957c-1.14.422-1.927.766-2.745,1.007-2.806.828-5.616,1.647-8.441,2.4a8.033,8.033,0,0,1-2.243.181,1.938,1.938,0,0,1-2.048-1.663c-.119-.565-.328-1.111-.539-1.8,5.192-.645,10.363-2.626,16.017-.124" transform="translate(-6746.083 -4673.659)" fill="#fff"/>
    <path id="Path_19530" data-name="Path 19530" d="M810.142,451.7c1.736.237,2.237,1.112,2.255,2.673a10.976,10.976,0,0,0,2.818,7.831c2.018,2.1,4.649,2.684,7.405,2.935.4.037.809.051,1.213.075q.022.163.045.326a7.367,7.367,0,0,1-1.823.182c-1.441-.213-2.871-.526-4.292-.853-4.656-1.07-6.907-3.407-7.584-8.151a36.086,36.086,0,0,1-.037-5.018" transform="translate(-7004.728 -4311.264)" fill="#fff"/>
    <path id="Path_19531" data-name="Path 19531" d="M519.671,275.92a21.848,21.848,0,0,0,7.32,3.59,2.663,2.663,0,0,1,.971.547,22.132,22.132,0,0,0,14.982,5.2,85.828,85.828,0,0,0,10.209-1,12.9,12.9,0,0,0,2.709-1.007l.848,1.5a19.717,19.717,0,0,1-2.729.459c-5.059.112-10.183.7-15.163.111a30.679,30.679,0,0,1-17.664-7.7,21.065,21.065,0,0,1-1.483-1.689" transform="translate(-6787.305 -4179.652)" fill="#fff"/>
    <path id="Path_19532" data-name="Path 19532" d="M373.077,155.072a10.421,10.421,0,0,1,10.485-2.7,4.314,4.314,0,0,1,2.75,5.145c-.117.477-.317.934-.39,1.422,1.521-1.447,1.535-3.26,1.361-5.295.2.339.565.68.561,1.016a9.8,9.8,0,0,1-3.715,7.662,16.227,16.227,0,0,0,.336-1.606,23.313,23.313,0,0,0,.41-4.916c-.2-1.826-1.592-2.764-3.454-2.861a11.768,11.768,0,0,0-6.085,1.714,16.172,16.172,0,0,1-2.154.772Z" transform="translate(-6677.547 -4086.793)" fill="#fff"/>
    <path id="Path_19533" data-name="Path 19533" d="M191.887,412.4a9.316,9.316,0,0,1-.967-2.7c-.1-3.114.006-6.235.033-9.353l.385-.084c1.072.965,2.154,1.919,3.2,2.908a.725.725,0,0,1,.149.657,20.792,20.792,0,0,0-2.355,8.5l-.448.07" transform="translate(-6541.133 -4272.749)" fill="#fff"/>
    <path id="Path_19534" data-name="Path 19534" d="M711.67,401.211c-3.3-3.46-4.532-7.544-4.663-12.134,2.553,1.473,5.192,8.289,4.663,12.134" transform="translate(-6927.566 -4264.375)" fill="#fff"/>
    <path id="Path_19535" data-name="Path 19535" d="M227.815,315.266c4.559,1.439,7.851,5.616,7.578,9.434-.3,4.158-4.394,8.3-9.13,9.1l.33-1.7a5.9,5.9,0,0,0,5.016-1.5,8.1,8.1,0,0,0,2.062-8.645,12.336,12.336,0,0,0-4.886-5.887c-.238-.169-.49-.319-.728-.488a1.877,1.877,0,0,1-.241-.326" transform="translate(-6567.626 -4209.111)" fill="#fff"/>
    <path id="Path_19537" data-name="Path 19537" d="M220.345,537.26c.2.4.582.815.562,1.207a26.594,26.594,0,0,1-.443,3.217c-.093.533-.292,1.047-.422,1.574-.6,2.409.212,3.387,2.689,3.316,1.253-.035,2.509-.048,3.76.005a16.81,16.81,0,0,1,2.061.332l.1.332c-.3.158-.615.463-.911.449-2.337-.108-4.67-.277-7.005-.429-.125-.008-.248-.035-.372-.055-2.408-.375-2.724-.923-1.539-2.992,1.227-2.142,1.932-4.342,1.081-6.849l.442-.108" transform="translate(-6561.554 -4375.322)" fill="#fff"/>
    <path id="Path_19538" data-name="Path 19538" d="M822.406,335.967a61.907,61.907,0,0,1,.858,6.573c.031.978-.734,1.981-1.186,3.092-1.711-3.489-1.63-5.542.328-9.665" transform="translate(-7012.811 -4224.61)" fill="#fff"/>
    <path id="Path_19539" data-name="Path 19539" d="M300.384,198.253c-1.407.809-7.5,1.577-10.351,1.339,3.119-2.878,6.654-2.2,10.351-1.339" transform="translate(-6615.371 -4120.943)" fill="#fff"/>
    <path id="Path_19540" data-name="Path 19540" d="M299.081,172.311c2.646-1.421,5.33-1.139,7.98-.076a14.3,14.3,0,0,1,2.58,1.534c.2.138.243.521.358.792a2.451,2.451,0,0,1-.885.065c-1.913-.613-3.784-1.384-5.727-1.868a30.675,30.675,0,0,0-4.333-.476l.027.029" transform="translate(-6622.125 -4101.352)" fill="#fff"/>
    <path id="Path_19541" data-name="Path 19541" d="M251.738,281.4c-5.117-.539-10.142-4.672-10.973-9.158a21.848,21.848,0,0,1,2.12,2.571,11.394,11.394,0,0,0,5.494,4.759,36.812,36.812,0,0,1,3.359,1.829" transform="translate(-6578.484 -4176.896)" fill="#fff"/>
    <path id="Path_19542" data-name="Path 19542" d="M236.161,555.582h-5.63l.876-3.667,4.754,3.667" transform="translate(-6570.821 -4386.294)" fill="#fff"/>
    <path id="Path_19543" data-name="Path 19543" d="M850.078,579.163l1.849-1.621a18.645,18.645,0,0,0,8.9,2.534c-3.547.222-7.085.363-10.753-.914" transform="translate(-7034.686 -4405.481)" fill="#fff"/>
    <path id="Path_19544" data-name="Path 19544" d="M398.041,166.765c-1.274-2.307-3.411-3.17-5.843-3.683,1.5-.931,3.546-1.053,4.634-.262,1.352.983,1.424,2.417,1.209,3.944" transform="translate(-6691.864 -4094.582)" fill="#fff"/>
    <path id="Path_19545" data-name="Path 19545" d="M230.69,539.445l5.106,3.034-.08.385c-.967-.182-1.943-.325-2.9-.561-.53-.131-.763-1.085-1.55-.586l-.918-1.963.34-.309" transform="translate(-6570.686 -4376.958)" fill="#fff"/>
    <path id="Path_19546" data-name="Path 19546" d="M425.564,35.506l-11.847,3.268-.153-.56,11.882-3.139.118.431" transform="translate(-6707.861 -3999.328)" fill="#fff"/>
    <path id="Path_19547" data-name="Path 19547" d="M217.173,299.634c-2.707.687-3.944-.145-4.522-2.881l4.522,2.881" transform="translate(-6557.435 -4195.25)" fill="#fff"/>
    <path id="Path_19548" data-name="Path 19548" d="M636.007,316.479l7.177-1.494c-1.763,2.979-4.7,1.223-7.177,1.494" transform="translate(-6874.407 -4208.901)" fill="#fff"/>
    <path id="Path_19549" data-name="Path 19549" d="M802.094,445.7a4.183,4.183,0,0,1,.421,1.418c-.149,1.78-.407,3.551-.638,5.424-.923-2.245-.387-4.48-.268-6.7l.485-.146" transform="translate(-6998.2 -4306.771)" fill="#fff"/>
    <path id="Path_19551" data-name="Path 19551" d="M207.47,462.893c1.618,1.153,3.423,2.131,4.081,4.419a9.663,9.663,0,0,1-4.081-4.419" transform="translate(-6553.555 -4319.642)" fill="#fff"/>
    <path id="Path_19552" data-name="Path 19552" d="M268.872,637.108a4.383,4.383,0,0,1-2.533-4.5l2.533,4.5" transform="translate(-6597.601 -4446.711)" fill="#fff"/>
    <path id="Path_19553" data-name="Path 19553" d="M457.643,48.2c1.818-.271,3.656-1.148,5.766,0Z" transform="translate(-6740.863 -4008.727)" fill="#fff"/>
    <path id="Path_19554" data-name="Path 19554" d="M266.81,129.886l4.267-3.7.3.283a4.414,4.414,0,0,1-.622.787c-1,.806-2.023,1.592-3.065,2.347a2.8,2.8,0,0,1-.864.246c0,.007-.019.035-.019.035" transform="translate(-6597.984 -4067.545)" fill="#fff"/>
    <path id="Path_19555" data-name="Path 19555" d="M296.309,138.341l4.71-.526c-1.132.853-1.132.853-4.71.526" transform="translate(-6620.07 -4076.251)" fill="#fff"/>
    <path id="Path_19556" data-name="Path 19556" d="M821.815,520.457l-1.5,1.775-.524-.427,1.462-1.828.566.48" transform="translate(-7012.006 -4362.382)" fill="#fff"/>
    <path id="Path_19557" data-name="Path 19557" d="M498.78,293.787c1.24-.716,1.819.7,2.788.865l-.089.306-2.743-.791Z" transform="translate(-6771.629 -4192.88)" fill="#fff"/>
    <path id="Path_19558" data-name="Path 19558" d="M396.007,51.777l3.054-.672.108.591-3.112.363-.05-.282" transform="translate(-6694.716 -4011.33)" fill="#fff"/>
    <path id="Path_19560" data-name="Path 19560" d="M339.512,662.221c3.854,5.524,9.647,7.674,16.5,4.769a16.011,16.011,0,0,1,5.868-1.62,10.006,10.006,0,0,0,6-2.342q5.286-4.238,10.365-8.731c2.34-2.065,2.794-5.066,3.478-7.915.185-.768.354-1.539.6-2.287-.345,4.919-.983,9.729-5.116,13.185q-3.947,3.3-7.878,6.619c-.179.15-.371.284-.83.633l7.826-.644.123.424c-2.956,1.4-5.8,3.168-8.9,4.126-4.626,1.432-9.421,2.328-14.16,3.378a16.23,16.23,0,0,1-3.494.289,8,8,0,0,1-6.9-3.691c-.236-.342-.478-.68-.723-1.016-.016-.022-.08-.01-.2-.022.187,1.889.706,3.866-1.13,5.332,1.307-3.753-.759-6.512-2.786-9.154a52,52,0,0,0-6.251-7.021,40.432,40.432,0,0,1-3.283-2.9c-4.682-5.236-5.653-11.125-3.083-17.621a32.166,32.166,0,0,1,2.09-4.361c-.585,2.6-1.292,5.184-1.73,7.812a15.213,15.213,0,0,0,4.586,13.824c.968.976,2.031,1.859,3.136,2.863.339-.4.619-.753.92-1.085,1.264-1.393,2.44-2.884,3.822-4.149,3.219-2.945,6.949-3.424,11-1.97a1.7,1.7,0,0,0,1.122.066c5.765-2.5,11.885-3.745,17.964-5.137.325-.075.651-.147.972-.237.064-.018.105-.115.437-.505-5.37-.422-10.482-.908-15.6-1.188a7.007,7.007,0,0,0-6.207,2.7,3.631,3.631,0,0,1-2.061,1,5.024,5.024,0,0,1-2.485-.061c-2.072-.706-3.437.173-4.8,1.6a34.1,34.1,0,0,1-4.873,4.129c2.037-2.346,4.053-4.711,6.141-7.011.244-.268.888-.23,1.348-.235a42.18,42.18,0,0,0,4.705-.035,3.248,3.248,0,0,0,2-1.321,4.281,4.281,0,0,1,3.669-2.076c3.675.018,7.356.1,11.021.348a54.226,54.226,0,0,1,7.959,1.082c3.9.861,7.654-.011,11.456-.5.358-.046.711-.141,1.141-.228-.083-2.372-1.951-3.724-3.092-5.478,3.224,1.854,5.678,4.194,5.958,8.21a15.47,15.47,0,0,0,1.045,5.339,9.908,9.908,0,0,0,7.666,5.5c2.712.494,5.473.717,8.212,1.059a11.075,11.075,0,0,1,1.549.26,27.742,27.742,0,0,1-11.955-.38,10.744,10.744,0,0,1-7.881-7.863c-.537-1.923-.887-3.9-1.335-5.913a12.617,12.617,0,0,0-6.548,3.49,43.525,43.525,0,0,1-10.453,7.952,35.787,35.787,0,0,0-3.841,2.82,39.775,39.775,0,0,1-14.289,6.845,10.976,10.976,0,0,1-8.791-.956m-4.69-5.24q-.009.167-.019.334a33.167,33.167,0,0,0,7.442,1.794c6.462.576,12.266-1.965,18.075-4.112,4.842-1.79,9.03-4.9,13.1-8.073a7.023,7.023,0,0,0,.643-.686c-1.763.526-3.3,1.093-4.879,1.436a144.493,144.493,0,0,0-18.807,5.831,46.635,46.635,0,0,1-13.793,3.08,10.174,10.174,0,0,0-1.764.4" transform="translate(-6640.913 -4445.994)" fill="#263238"/>
    <path id="Path_19561" data-name="Path 19561" d="M441.946,335.974l-4.1-4.249v3.067c-1.575-2.9-1.575-2.9-4.875-3.25.657.47,1.056.771,1.47,1.048a6.918,6.918,0,0,1,3.22,4.163,19.221,19.221,0,0,1,.773,7.891,1.1,1.1,0,0,0,1.051,1.384c.853.147,1.722.2,2.753.315a6.481,6.481,0,0,1-5.219.8c-1.832-.376-3.582-1.137-5.388-1.657-2.287-.658-4.581-1.3-6.9-1.842a6.44,6.44,0,0,0-5.928,1.672,32.907,32.907,0,0,0-6.937,8.03c-.5.853-1.28,1.538-1.837,2.365a1.492,1.492,0,0,0,.24,2.216,8.582,8.582,0,0,1,1.757,2.118,3.753,3.753,0,0,0,3.152,1.9c3.7.391,7.4.842,11.1,1.27a7.372,7.372,0,0,1,1.693.341c-5.073.661-10.172,1.235-15.037-.864-1.613-.7-2.945-2.025-4.442-3.012a9.8,9.8,0,0,0-2.179-1.124c-1.721-.588-2.18-1.584-1.066-2.991a6.248,6.248,0,0,0,1.017-3.412c.567-4.43,1.981-8.473,5.354-11.609.454-.422.938-.813,1.529-1.323l-4.538,8.8.565.345,2.93-4.126-.861,6.054c.476-1.123.907-2.249,1.423-3.334,1.861-3.914,4.549-6.932,9.139-7.33a19.7,19.7,0,0,1,13.935,3.951c.435.327.849.681,1.279,1.015.056.043.152.036.334.073a46.105,46.105,0,0,0-.038-5.2c-.267-2.328-1.934-3.631-3.977-4.453A21.449,21.449,0,0,0,422.36,333.8c-4.82.632-9.3,2.425-13.818,4.09-.33.122-.617.833-.626,1.277a11,11,0,0,1-1.594,5.74c-1.7,2.716-4.01,4.23-7.363,3.562a3.694,3.694,0,0,0-.5-.035c-.161-.01-.323-.017-.907-.048,4.147-1.773,4.888-5.614,6.716-8.8-2.027.282-2.665.832-2.638,2.256l1.2-.7.318.212c-1.275,1.885-2.447,3.853-3.87,5.618-.692.857-1.837.636-2.741-.054a5.8,5.8,0,0,1-1.991-3.872l.648.241-.043-.038c.815.8,1.577,1.675,2.463,2.39.64.517,1.268.272,1.606-.511.69-1.6,1.359-3.208,2.074-4.8a2.312,2.312,0,0,1,.7-.848,12.514,12.514,0,0,1,1.4-.837c1.345-.761,2.641-1.211,3.316-3.093,1.1-3.064,3.785-4.783,7.032-5.468,1.006-.212,1.986-.544,3.125-.862-1.28-.764-5.493.21-7.344,1.723-1.967,1.608-3.793,3.389-5.373,4.816l3.365-5.7-2.052,1,.777.259c-3.826,3.063-5.191,7.5-6.958,11.906-.525-2.62.4-5.937,2.442-9.938l-4.252,4.168c.343-3.131,6.548-7.452,11.061-9.588a18.362,18.362,0,0,1,14.817-.716c.1-.2.2-.531.274-.526,3.389.242,6.739.569,9.82,2.273,1.723.953,3.615,1.6,5.43,2.388l.156-.309-2.537-1.678c3.195,1.072,6.385,2.148,8.746,4.709a7.539,7.539,0,0,1,1.591,7.287,3.153,3.153,0,0,1-1.455,1.914,13.663,13.663,0,0,1-4.3,1.074c2.464-.88,4.544-2.039,4.645-4.981.1-2.891-1.781-4.64-3.869-6.261a6.943,6.943,0,0,1,1.792,6.553l-1.219-2.709-.478-.911m-40.211,11.234c3.15-2.124,4.712-5.272,5.855-8.7l-.442-.282-5.413,8.98m11.8-19.613q.019.22.037.441c1.584-.35,3.282,1.06,4.783-.663l-4.82.223m12.044.165-.115.268,4.515,2.045.222-.544-4.623-1.769" transform="translate(-6693.62 -4217.091)" fill="#263238"/>
    <path id="Path_19562" data-name="Path 19562" d="M434.5,547.277a27.544,27.544,0,0,0,1.446-3.724,5.148,5.148,0,0,0-2.141-5.732c-2.069-1.484-4.124-2.995-6.269-4.364a32.782,32.782,0,0,0-3.866-1.8c2.422.105,4.619.264,6.408,1.51,4.918,3.425,10.6,5.328,15.818,8.133,4.922,2.644,9.735,5.464,13.548,9.624a60.659,60.659,0,0,1,4.07,5.541c.656.9,1.334,1.793,1.968,2.713.742,1.078,1.447,2.182,2.339,3.534l-6.491-4.848v7.524c-.5-2.378-.927-4.8-1.528-7.173a8.014,8.014,0,0,0-2.578-3.9c-5.334-4.914-11.4-8.772-17.578-12.478-.6-.362-1.2-.743-1.953-1.213-.152,2.753-.99,5.055-3.222,6.637Z" transform="translate(-6715.428 -4371.125)" fill="#263238"/>
    <path id="Path_19563" data-name="Path 19563" d="M468.845,423.611l7.989-2.435.075-.362a4.8,4.8,0,0,1-3.585-3.659L467.98,423c.292-2.96.563-5.874,2.3-8.361a6.685,6.685,0,0,1,4.8-2.924,40.619,40.619,0,0,1,7.977-.233c1.436.126,2.828,1.119,4.166,1.858a1.76,1.76,0,0,0,2.035.173,13.389,13.389,0,0,1,2.75-.843c-2.724,2.268-5.1,4.407-7.639,6.322a24.462,24.462,0,0,1-14.815,4.727,4.956,4.956,0,0,1-.707-.112m13.6-5.408,3.863-2.73-.165-.243h-3.7Zm-6.63-1.3c-.427-.328-.73-.7-.879-.647a3.271,3.271,0,0,0-.87.7c.232.193.467.544.7.541.286,0,.568-.3,1.053-.591" transform="translate(-6748.603 -4281.072)" fill="#263238"/>
    <path id="Path_19564" data-name="Path 19564" d="M342.16,588.1a10.345,10.345,0,0,1-.2-4.957,5.746,5.746,0,0,0,.369-1.7,2.242,2.242,0,0,0-.806-1.469c-1.042-.685-2.251-1.112-3.311-1.773-1.259-.785-2.442-1.695-3.639-2.577a1.659,1.659,0,0,1-.527-.689c-1.974-4.964-2.49-10-.614-15.19,0,.827,0,1.609,0,2.391s-.023,1.589.007,2.381a18.715,18.715,0,0,0,2.255,8.909,10.157,10.157,0,0,0,8.089,5.264,31.489,31.489,0,0,0,5-.084,4.986,4.986,0,0,0,3.606-1.8c1.719-2,4.04-2.325,6.49-2.3a9.847,9.847,0,0,0-5.435,2.8,1.535,1.535,0,0,0-.208,2.26,3.931,3.931,0,0,0,.5.556c1.063,1.113.99,1.388-1,1.933l3.548,3.42c-1.844.489-3.84-.755-4.627-3.218-.328-1.026-.866-1.321-2.088-.944.274.6.482,1.152.774,1.658.625,1.086,1.38,2.108,1.907,3.237a4.356,4.356,0,0,1,0,1.759,4.636,4.636,0,0,1-1.726-.224,7.7,7.7,0,0,1-2.1-1.752,1.389,1.389,0,0,0-2.149-.305c-.873.574-1.751,1.143-2.645,1.686-.413.251-.866.436-1.463.73" transform="translate(-6646.988 -4392.157)" fill="#263238"/>
    <path id="Path_19565" data-name="Path 19565" d="M415.786,593.75c.532.191,1.063.385,1.6.572.762.268.921.773.35,1.309a4.533,4.533,0,0,1-1.752,1.156c-3.871,1.034-7.763,1.986-11.654,2.943-1.594.392-3.378-.2-4.844.946-.151.118-.542-.072-.768-.11.818-.755,1.626-1.515,2.449-2.258,2.927-2.643,6.12-4.413,10.316-3.87,1.4.181,2.894-.419,4.34-.665l-.034-.023" transform="translate(-6696.742 -4417.616)" fill="#263238"/>
    <path id="Path_19566" data-name="Path 19566" d="M305.88,321.4c10.067-1.949,19.953-4.507,29.359-8.687-5.121,5.233-20.146,9.688-29.359,8.687" transform="translate(-6627.236 -4207.2)" fill="#263238"/>
    <path id="Path_19567" data-name="Path 19567" d="M459.043,478.954c-7,.12-13.112-1.678-16.98-8.183,4.993,4.115,10.836,6.431,16.98,8.183" transform="translate(-6729.199 -4325.54)" fill="#263238"/>
    <path id="Path_19568" data-name="Path 19568" d="M309,519.186c0,1.855-.511,3.327-1.773,4.189a22.1,22.1,0,0,1-5.064,2.6,24.291,24.291,0,0,1-5.488.969c4.252-2.271,9.395-2.987,12.326-7.759" transform="translate(-6620.345 -4361.79)" fill="#263238"/>
    <path id="Path_19569" data-name="Path 19569" d="M575.234,359.32l.478.911a6.364,6.364,0,0,1,.02,4.295,3.1,3.1,0,0,1-2.766,2.138c2.863-3.363.772-6.314-.4-9.559l2.668,2.215" transform="translate(-6826.908 -4240.437)" fill="#263238"/>
    <path id="Path_19570" data-name="Path 19570" d="M296.156,556.571c-.866,4.245-4.8,6.387-9.206,4.971a16.922,16.922,0,0,0,9.206-4.971" transform="translate(-6613.063 -4389.78)" fill="#263238"/>
    <path id="Path_19571" data-name="Path 19571" d="M501.915,486.289l11.624-.761.17.3a9.573,9.573,0,0,1-2.169,1.091c-3.234.7-6.448.231-9.651-.263q.013-.185.026-.371" transform="translate(-6773.991 -4336.589)" fill="#263238"/>
    <path id="Path_19572" data-name="Path 19572" d="M579.154,685.714c-2.622-1.927-4.316-4.329-3.96-7.781l.342-.179,4.006,7.764-.389.2" transform="translate(-6828.84 -4480.513)" fill="#263238"/>
    <path id="Path_19573" data-name="Path 19573" d="M398.171,382.485l.492,1.2c-1.231.232-1.951-.634-2.794-1.2l.042.037a4.662,4.662,0,0,1,.186-4.192l1.77,3.62.3.54" transform="translate(-6694.339 -4256.324)" fill="#263238"/>
    <path id="Path_19574" data-name="Path 19574" d="M404.145,377.841l-.3-.54c-.724-2.275-.39-3.71,1.369-5.178-.1,2.158-.188,4.142-.288,6.345l-.777-.627" transform="translate(-6700.313 -4251.681)" fill="#263238"/>
    <path id="Path_19575" data-name="Path 19575" d="M287.719,524.382l4.866-2.113c-.61,2.546-2.433,3.372-4.866,2.113" transform="translate(-6613.639 -4364.098)" fill="#263238"/>
    <path id="Path_19576" data-name="Path 19576" d="M628.93,196.7a39.553,39.553,0,0,1,3.611,14.4c-2.682-4.424-3.423-9.346-3.611-14.4" transform="translate(-6869.109 -4120.338)" fill="#263238"/>
    <path id="Path_19579" data-name="Path 19579" d="M470.111,331.914l4.82-.222c-1.5,1.724-3.2.313-4.782.663l-.037-.441" transform="translate(-6750.199 -4221.409)" fill="#fff"/>
    <path id="Path_19580" data-name="Path 19580" d="M517.7,333.234,522.323,335l-.222.545-4.515-2.045.115-.268" transform="translate(-6785.744 -4222.564)" fill="#fff"/>
    <path id="Path_19581" data-name="Path 19581" d="M525.539,429.681v-2.973h3.7l.165.242-3.863,2.73" transform="translate(-6791.698 -4292.55)" fill="#fff"/>
    <path id="Path_19582" data-name="Path 19582" d="M493.94,431.421c-.486.291-.767.587-1.053.591-.229,0-.464-.347-.7-.541a3.272,3.272,0,0,1,.87-.7c.15-.054.452.319.88.647" transform="translate(-6766.729 -4295.591)" fill="#fff"/>
    <rect id="Rectangle_6085" data-name="Rectangle 6085" width="337.584" height="277.518" transform="translate(-6398.219 -3973.066)" fill="none"/>
  </g>
</svg>
